<svg xmlns="http://www.w3.org/2000/svg" xmlns:xlink="http://www.w3.org/1999/xlink" width="500" zoomAndPan="magnify" viewBox="0 0 375 374.999991" height="500" preserveAspectRatio="xMidYMid meet" version="1.0"><path fill="#f4f4f4" d="M 273.960938 92.886719 L 101.039062 92.886719 C 100.503906 92.886719 99.972656 92.9375 99.449219 93.042969 C 98.921875 93.148438 98.414062 93.300781 97.917969 93.507812 C 97.421875 93.710938 96.953125 93.960938 96.507812 94.257812 C 96.0625 94.558594 95.652344 94.894531 95.273438 95.273438 C 94.894531 95.652344 94.558594 96.0625 94.257812 96.507812 C 93.960938 96.953125 93.710938 97.421875 93.507812 97.917969 C 93.300781 98.414062 93.148438 98.921875 93.042969 99.449219 C 92.9375 99.972656 92.886719 100.503906 92.886719 101.039062 C 92.886719 101.574219 92.9375 102.101562 93.042969 102.628906 C 93.148438 103.152344 93.300781 103.664062 93.507812 104.15625 C 93.710938 104.652344 93.960938 105.121094 94.257812 105.566406 C 94.558594 106.011719 94.894531 106.425781 95.273438 106.800781 C 95.652344 107.179688 96.0625 107.519531 96.507812 107.816406 C 96.953125 108.113281 97.421875 108.363281 97.917969 108.570312 C 98.414062 108.773438 98.921875 108.929688 99.449219 109.035156 C 99.972656 109.136719 100.503906 109.191406 101.039062 109.191406 L 254.300781 109.191406 L 95.273438 268.207031 C 94.871094 268.578125 94.507812 268.988281 94.183594 269.433594 C 93.863281 269.878906 93.589844 270.351562 93.363281 270.851562 C 93.136719 271.351562 92.964844 271.871094 92.84375 272.40625 C 92.722656 272.945312 92.65625 273.488281 92.644531 274.035156 C 92.632812 274.585938 92.675781 275.128906 92.777344 275.671875 C 92.875 276.210938 93.027344 276.738281 93.230469 277.246094 C 93.4375 277.757812 93.691406 278.242188 93.992188 278.699219 C 94.296875 279.15625 94.640625 279.582031 95.03125 279.96875 C 95.417969 280.359375 95.84375 280.703125 96.300781 281.007812 C 96.757812 281.308594 97.242188 281.5625 97.753906 281.769531 C 98.261719 281.972656 98.789062 282.125 99.328125 282.222656 C 99.871094 282.324219 100.414062 282.367188 100.964844 282.355469 C 101.511719 282.34375 102.054688 282.277344 102.59375 282.15625 C 103.128906 282.035156 103.648438 281.863281 104.148438 281.636719 C 104.648438 281.410156 105.121094 281.136719 105.566406 280.8125 C 106.011719 280.492188 106.421875 280.128906 106.792969 279.726562 L 265.808594 120.71875 L 265.808594 273.976562 C 265.808594 274.511719 265.863281 275.042969 265.964844 275.570312 C 266.070312 276.09375 266.226562 276.601562 266.429688 277.097656 C 266.636719 277.59375 266.886719 278.0625 267.183594 278.507812 C 267.480469 278.953125 267.820312 279.363281 268.199219 279.742188 C 268.574219 280.121094 268.988281 280.460938 269.433594 280.757812 C 269.878906 281.054688 270.347656 281.304688 270.84375 281.511719 C 271.335938 281.714844 271.847656 281.871094 272.371094 281.972656 C 272.898438 282.078125 273.425781 282.128906 273.960938 282.128906 C 274.496094 282.128906 275.027344 282.078125 275.550781 281.972656 C 276.078125 281.871094 276.585938 281.714844 277.082031 281.511719 C 277.574219 281.304688 278.046875 281.054688 278.492188 280.757812 C 278.9375 280.460938 279.347656 280.121094 279.726562 279.742188 C 280.105469 279.363281 280.441406 278.953125 280.738281 278.507812 C 281.039062 278.0625 281.289062 277.59375 281.492188 277.097656 C 281.699219 276.601562 281.851562 276.09375 281.957031 275.570312 C 282.0625 275.042969 282.113281 274.511719 282.113281 273.976562 L 282.113281 101.039062 C 282.113281 100.503906 282.0625 99.972656 281.957031 99.449219 C 281.851562 98.921875 281.699219 98.414062 281.492188 97.917969 C 281.289062 97.421875 281.039062 96.953125 280.738281 96.507812 C 280.441406 96.0625 280.105469 95.652344 279.726562 95.273438 C 279.347656 94.894531 278.9375 94.558594 278.492188 94.257812 C 278.046875 93.960938 277.574219 93.710938 277.082031 93.507812 C 276.585938 93.300781 276.078125 93.148438 275.550781 93.042969 C 275.027344 92.9375 274.496094 92.886719 273.960938 92.886719 Z M 273.960938 92.886719 " fill-opacity="1" fill-rule="nonzero"/><path fill="#f4f4f4" d="M 187.5 0 C 184.429688 0 181.363281 0.0742188 178.300781 0.226562 C 175.234375 0.375 172.175781 0.601562 169.121094 0.902344 C 166.066406 1.203125 163.023438 1.578125 159.988281 2.03125 C 156.953125 2.480469 153.929688 3.003906 150.921875 3.601562 C 147.910156 4.203125 144.917969 4.875 141.941406 5.617188 C 138.964844 6.363281 136.007812 7.183594 133.070312 8.074219 C 130.136719 8.964844 127.222656 9.925781 124.332031 10.960938 C 121.445312 11.996094 118.582031 13.097656 115.746094 14.273438 C 112.910156 15.445312 110.105469 16.691406 107.332031 18.003906 C 104.558594 19.3125 101.820312 20.691406 99.113281 22.140625 C 96.40625 23.585938 93.738281 25.097656 91.105469 26.675781 C 88.472656 28.253906 85.882812 29.894531 83.332031 31.597656 C 80.777344 33.304688 78.269531 35.070312 75.804688 36.898438 C 73.339844 38.726562 70.921875 40.613281 68.550781 42.558594 C 66.179688 44.507812 63.855469 46.511719 61.582031 48.570312 C 59.308594 50.632812 57.085938 52.746094 54.917969 54.917969 C 52.746094 57.085938 50.632812 59.308594 48.570312 61.582031 C 46.511719 63.855469 44.507812 66.179688 42.558594 68.550781 C 40.613281 70.921875 38.726562 73.339844 36.898438 75.804688 C 35.070312 78.269531 33.304688 80.777344 31.597656 83.332031 C 29.894531 85.882812 28.253906 88.472656 26.675781 91.105469 C 25.097656 93.738281 23.585938 96.40625 22.140625 99.113281 C 20.691406 101.820312 19.3125 104.558594 18.003906 107.332031 C 16.691406 110.105469 15.445312 112.910156 14.273438 115.746094 C 13.097656 118.582031 11.996094 121.445312 10.960938 124.332031 C 9.925781 127.222656 8.964844 130.136719 8.074219 133.070312 C 7.183594 136.007812 6.363281 138.964844 5.621094 141.941406 C 4.875 144.917969 4.203125 147.910156 3.601562 150.921875 C 3.003906 153.929688 2.480469 156.953125 2.03125 159.988281 C 1.578125 163.023438 1.203125 166.066406 0.902344 169.121094 C 0.601562 172.175781 0.375 175.234375 0.226562 178.300781 C 0.0742188 181.363281 0 184.429688 0 187.5 C 0 190.570312 0.0742188 193.636719 0.226562 196.699219 C 0.375 199.765625 0.601562 202.824219 0.902344 205.878906 C 1.203125 208.933594 1.578125 211.976562 2.03125 215.011719 C 2.480469 218.046875 3.003906 221.070312 3.601562 224.078125 C 4.203125 227.089844 4.875 230.082031 5.617188 233.058594 C 6.363281 236.035156 7.183594 238.992188 8.074219 241.929688 C 8.964844 244.863281 9.925781 247.777344 10.960938 250.667969 C 11.996094 253.554688 13.097656 256.417969 14.273438 259.253906 C 15.445312 262.089844 16.691406 264.890625 18.003906 267.667969 C 19.3125 270.441406 20.691406 273.179688 22.140625 275.886719 C 23.585938 278.59375 25.097656 281.261719 26.675781 283.894531 C 28.253906 286.527344 29.894531 289.117188 31.597656 291.667969 C 33.304688 294.222656 35.070312 296.730469 36.898438 299.195312 C 38.726562 301.660156 40.613281 304.078125 42.558594 306.449219 C 44.507812 308.820312 46.511719 311.144531 48.570312 313.417969 C 50.632812 315.691406 52.746094 317.914062 54.917969 320.082031 C 57.085938 322.253906 59.308594 324.367188 61.582031 326.429688 C 63.855469 328.488281 66.179688 330.492188 68.550781 332.4375 C 70.921875 334.386719 73.339844 336.273438 75.804688 338.101562 C 78.269531 339.929688 80.777344 341.695312 83.332031 343.402344 C 85.882812 345.105469 88.472656 346.746094 91.105469 348.324219 C 93.738281 349.902344 96.40625 351.414062 99.113281 352.859375 C 101.820312 354.308594 104.558594 355.6875 107.332031 356.996094 C 110.105469 358.308594 112.910156 359.554688 115.746094 360.726562 C 118.582031 361.902344 121.445312 363.003906 124.332031 364.039062 C 127.222656 365.074219 130.136719 366.035156 133.070312 366.925781 C 136.007812 367.816406 138.964844 368.636719 141.941406 369.378906 C 144.917969 370.125 147.910156 370.796875 150.921875 371.398438 C 153.929688 371.996094 156.953125 372.519531 159.988281 372.96875 C 163.023438 373.421875 166.066406 373.796875 169.121094 374.097656 C 172.175781 374.398438 175.234375 374.625 178.300781 374.773438 C 181.363281 374.925781 184.429688 375 187.5 375 C 190.570312 375 193.636719 374.925781 196.699219 374.773438 C 199.765625 374.625 202.824219 374.398438 205.878906 374.097656 C 208.933594 373.796875 211.976562 373.421875 215.011719 372.96875 C 218.046875 372.519531 221.070312 371.996094 224.078125 371.398438 C 227.089844 370.796875 230.082031 370.125 233.058594 369.378906 C 236.035156 368.636719 238.992188 367.816406 241.929688 366.925781 C 244.863281 366.035156 247.777344 365.074219 250.667969 364.039062 C 253.554688 363.003906 256.417969 361.902344 259.253906 360.726562 C 262.089844 359.554688 264.890625 358.308594 267.667969 356.996094 C 270.441406 355.6875 273.179688 354.308594 275.886719 352.859375 C 278.59375 351.414062 281.261719 349.902344 283.894531 348.324219 C 286.527344 346.746094 289.117188 345.105469 291.667969 343.402344 C 294.222656 341.695312 296.730469 339.929688 299.195312 338.101562 C 301.660156 336.273438 304.078125 334.386719 306.449219 332.4375 C 308.820312 330.492188 311.144531 328.488281 313.417969 326.429688 C 315.691406 324.367188 317.914062 322.253906 320.082031 320.082031 C 322.253906 317.914062 324.367188 315.691406 326.429688 313.417969 C 328.488281 311.144531 330.492188 308.820312 332.4375 306.449219 C 334.386719 304.078125 336.273438 301.660156 338.101562 299.195312 C 339.929688 296.730469 341.695312 294.222656 343.402344 291.667969 C 345.105469 289.117188 346.746094 286.527344 348.324219 283.894531 C 349.902344 281.261719 351.414062 278.59375 352.859375 275.886719 C 354.308594 273.179688 355.6875 270.441406 356.996094 267.667969 C 358.308594 264.890625 359.554688 262.089844 360.726562 259.253906 C 361.902344 256.417969 363.003906 253.554688 364.039062 250.667969 C 365.074219 247.777344 366.035156 244.863281 366.925781 241.929688 C 367.816406 238.992188 368.636719 236.035156 369.378906 233.058594 C 370.125 230.082031 370.796875 227.089844 371.398438 224.078125 C 371.996094 221.070312 372.519531 218.046875 372.96875 215.011719 C 373.421875 211.976562 373.796875 208.933594 374.097656 205.878906 C 374.398438 202.824219 374.625 199.765625 374.773438 196.699219 C 374.925781 193.636719 375 190.570312 375 187.5 C 374.996094 184.433594 374.917969 181.367188 374.765625 178.304688 C 374.609375 175.238281 374.382812 172.179688 374.078125 169.128906 C 373.773438 166.074219 373.394531 163.03125 372.941406 160 C 372.488281 156.964844 371.964844 153.945312 371.363281 150.933594 C 370.761719 147.925781 370.085938 144.933594 369.339844 141.960938 C 368.589844 138.984375 367.769531 136.03125 366.878906 133.09375 C 365.984375 130.160156 365.023438 127.25 363.988281 124.363281 C 362.953125 121.472656 361.847656 118.613281 360.671875 115.78125 C 359.496094 112.945312 358.25 110.144531 356.9375 107.371094 C 355.625 104.597656 354.246094 101.859375 352.796875 99.15625 C 351.351562 96.449219 349.839844 93.78125 348.261719 91.152344 C 346.683594 88.519531 345.039062 85.929688 343.335938 83.378906 C 341.628906 80.832031 339.863281 78.324219 338.035156 75.859375 C 336.207031 73.398438 334.320312 70.980469 332.375 68.609375 C 330.429688 66.238281 328.425781 63.914062 326.363281 61.640625 C 324.304688 59.371094 322.191406 57.148438 320.019531 54.980469 C 317.851562 52.808594 315.628906 50.695312 313.359375 48.636719 C 311.085938 46.574219 308.761719 44.570312 306.390625 42.625 C 304.019531 40.679688 301.601562 38.792969 299.140625 36.964844 C 296.675781 35.136719 294.167969 33.371094 291.621094 31.664062 C 289.070312 29.960938 286.480469 28.316406 283.847656 26.738281 C 281.21875 25.160156 278.550781 23.648438 275.84375 22.203125 C 273.140625 20.753906 270.402344 19.375 267.628906 18.0625 C 264.855469 16.75 262.054688 15.503906 259.21875 14.328125 C 256.386719 13.152344 253.527344 12.046875 250.636719 11.011719 C 247.75 9.976562 244.839844 9.015625 241.90625 8.121094 C 238.96875 7.230469 236.015625 6.410156 233.039062 5.660156 C 230.066406 4.914062 227.074219 4.238281 224.066406 3.636719 C 221.054688 3.035156 218.035156 2.511719 215 2.058594 C 211.96875 1.605469 208.925781 1.226562 205.871094 0.921875 C 202.820312 0.617188 199.761719 0.390625 196.695312 0.234375 C 193.632812 0.0820312 190.566406 0.00390625 187.5 0 Z M 187.5 358.695312 C 184.699219 358.695312 181.898438 358.625 179.101562 358.488281 C 176.300781 358.351562 173.507812 358.144531 170.71875 357.871094 C 167.933594 357.597656 165.152344 357.253906 162.378906 356.84375 C 159.609375 356.429688 156.847656 355.953125 154.101562 355.40625 C 151.351562 354.859375 148.621094 354.246094 145.902344 353.566406 C 143.183594 352.882812 140.484375 352.136719 137.804688 351.324219 C 135.125 350.511719 132.464844 349.632812 129.824219 348.6875 C 127.1875 347.746094 124.574219 346.734375 121.984375 345.664062 C 119.398438 344.59375 116.835938 343.457031 114.304688 342.257812 C 111.773438 341.0625 109.269531 339.800781 106.800781 338.480469 C 104.328125 337.160156 101.890625 335.78125 99.488281 334.339844 C 97.085938 332.898438 94.71875 331.402344 92.390625 329.84375 C 90.058594 328.289062 87.769531 326.675781 85.519531 325.003906 C 83.269531 323.335938 81.058594 321.613281 78.894531 319.835938 C 76.730469 318.058594 74.609375 316.230469 72.53125 314.347656 C 70.457031 312.464844 68.425781 310.535156 66.445312 308.554688 C 64.464844 306.574219 62.535156 304.542969 60.652344 302.46875 C 58.769531 300.390625 56.941406 298.269531 55.164062 296.105469 C 53.386719 293.941406 51.664062 291.730469 49.996094 289.480469 C 48.324219 287.230469 46.710938 284.941406 45.15625 282.609375 C 43.597656 280.28125 42.101562 277.914062 40.660156 275.511719 C 39.21875 273.109375 37.839844 270.671875 36.519531 268.199219 C 35.199219 265.730469 33.9375 263.226562 32.742188 260.695312 C 31.542969 258.164062 30.40625 255.601562 29.335938 253.015625 C 28.261719 250.425781 27.253906 247.8125 26.3125 245.175781 C 25.367188 242.535156 24.488281 239.875 23.675781 237.195312 C 22.863281 234.515625 22.117188 231.816406 21.433594 229.097656 C 20.753906 226.378906 20.140625 223.644531 19.59375 220.898438 C 19.046875 218.152344 18.570312 215.390625 18.15625 212.621094 C 17.746094 209.847656 17.402344 207.066406 17.128906 204.28125 C 16.855469 201.492188 16.648438 198.699219 16.511719 195.898438 C 16.375 193.101562 16.304688 190.300781 16.304688 187.5 C 16.304688 184.699219 16.375 181.898438 16.511719 179.101562 C 16.648438 176.300781 16.855469 173.507812 17.128906 170.71875 C 17.402344 167.929688 17.746094 165.152344 18.15625 162.378906 C 18.570312 159.609375 19.046875 156.847656 19.59375 154.101562 C 20.140625 151.351562 20.753906 148.621094 21.433594 145.902344 C 22.117188 143.183594 22.863281 140.484375 23.675781 137.804688 C 24.488281 135.125 25.367188 132.464844 26.3125 129.824219 C 27.253906 127.1875 28.261719 124.574219 29.335938 121.984375 C 30.40625 119.398438 31.542969 116.835938 32.742188 114.304688 C 33.9375 111.773438 35.199219 109.269531 36.519531 106.800781 C 37.839844 104.328125 39.21875 101.890625 40.660156 99.488281 C 42.101562 97.085938 43.597656 94.71875 45.15625 92.390625 C 46.710938 90.058594 48.324219 87.769531 49.996094 85.519531 C 51.664062 83.269531 53.386719 81.058594 55.164062 78.894531 C 56.941406 76.730469 58.769531 74.609375 60.652344 72.53125 C 62.535156 70.457031 64.464844 68.425781 66.445312 66.445312 C 68.425781 64.464844 70.457031 62.535156 72.53125 60.652344 C 74.609375 58.769531 76.730469 56.941406 78.894531 55.164062 C 81.058594 53.386719 83.269531 51.664062 85.519531 49.996094 C 87.769531 48.324219 90.058594 46.710938 92.390625 45.15625 C 94.71875 43.597656 97.085938 42.101562 99.488281 40.660156 C 101.890625 39.21875 104.328125 37.839844 106.800781 36.519531 C 109.269531 35.199219 111.773438 33.9375 114.304688 32.742188 C 116.835938 31.542969 119.398438 30.40625 121.984375 29.335938 C 124.574219 28.261719 127.1875 27.253906 129.824219 26.3125 C 132.464844 25.367188 135.125 24.488281 137.804688 23.675781 C 140.484375 22.863281 143.183594 22.117188 145.902344 21.433594 C 148.621094 20.753906 151.351562 20.140625 154.101562 19.59375 C 156.847656 19.046875 159.609375 18.570312 162.378906 18.15625 C 165.152344 17.746094 167.933594 17.402344 170.71875 17.128906 C 173.507812 16.855469 176.300781 16.648438 179.101562 16.511719 C 181.898438 16.375 184.699219 16.304688 187.5 16.304688 C 190.300781 16.304688 193.101562 16.375 195.898438 16.511719 C 198.699219 16.648438 201.492188 16.855469 204.28125 17.128906 C 207.066406 17.402344 209.847656 17.746094 212.621094 18.15625 C 215.390625 18.570312 218.152344 19.046875 220.898438 19.59375 C 223.644531 20.140625 226.378906 20.753906 229.097656 21.433594 C 231.816406 22.117188 234.515625 22.863281 237.195312 23.675781 C 239.875 24.488281 242.535156 25.367188 245.175781 26.3125 C 247.8125 27.253906 250.425781 28.261719 253.015625 29.335938 C 255.601562 30.40625 258.164062 31.542969 260.695312 32.742188 C 263.226562 33.9375 265.730469 35.199219 268.199219 36.519531 C 270.671875 37.839844 273.109375 39.21875 275.511719 40.660156 C 277.914062 42.101562 280.28125 43.597656 282.609375 45.15625 C 284.941406 46.710938 287.230469 48.324219 289.480469 49.996094 C 291.730469 51.664062 293.941406 53.386719 296.105469 55.164062 C 298.269531 56.941406 300.390625 58.769531 302.46875 60.652344 C 304.542969 62.535156 306.574219 64.464844 308.554688 66.445312 C 310.535156 68.425781 312.464844 70.457031 314.347656 72.53125 C 316.230469 74.609375 318.058594 76.730469 319.835938 78.894531 C 321.613281 81.058594 323.335938 83.269531 325.003906 85.519531 C 326.675781 87.769531 328.289062 90.058594 329.84375 92.390625 C 331.402344 94.71875 332.898438 97.085938 334.339844 99.488281 C 335.78125 101.890625 337.160156 104.328125 338.480469 106.800781 C 339.800781 109.269531 341.0625 111.773438 342.257812 114.304688 C 343.457031 116.835938 344.59375 119.398438 345.664062 121.984375 C 346.734375 124.574219 347.746094 127.1875 348.6875 129.824219 C 349.632812 132.464844 350.511719 135.125 351.324219 137.804688 C 352.136719 140.484375 352.882812 143.183594 353.566406 145.902344 C 354.246094 148.621094 354.859375 151.351562 355.40625 154.101562 C 355.953125 156.847656 356.429688 159.609375 356.84375 162.378906 C 357.253906 165.152344 357.597656 167.929688 357.871094 170.71875 C 358.144531 173.507812 358.351562 176.300781 358.488281 179.101562 C 358.625 181.898438 358.695312 184.699219 358.695312 187.5 C 358.691406 190.300781 358.621094 193.101562 358.480469 195.898438 C 358.339844 198.695312 358.132812 201.488281 357.855469 204.273438 C 357.578125 207.0625 357.230469 209.839844 356.820312 212.609375 C 356.40625 215.378906 355.925781 218.140625 355.375 220.886719 C 354.828125 223.632812 354.210938 226.363281 353.527344 229.082031 C 352.84375 231.796875 352.097656 234.496094 351.28125 237.175781 C 350.46875 239.855469 349.585938 242.511719 348.640625 245.148438 C 347.695312 247.785156 346.6875 250.398438 345.613281 252.984375 C 344.539062 255.570312 343.40625 258.132812 342.207031 260.664062 C 341.007812 263.195312 339.746094 265.695312 338.425781 268.164062 C 337.105469 270.632812 335.722656 273.070312 334.28125 275.472656 C 332.84375 277.875 331.34375 280.238281 329.785156 282.566406 C 328.230469 284.894531 326.617188 287.183594 324.949219 289.433594 C 323.277344 291.683594 321.554688 293.890625 319.777344 296.054688 C 318 298.21875 316.171875 300.339844 314.292969 302.414062 C 312.410156 304.492188 310.480469 306.519531 308.5 308.5 C 306.519531 310.480469 304.492188 312.410156 302.414062 314.292969 C 300.339844 316.171875 298.21875 318 296.054688 319.777344 C 293.890625 321.554688 291.683594 323.277344 289.433594 324.949219 C 287.183594 326.617188 284.894531 328.230469 282.566406 329.785156 C 280.238281 331.34375 277.875 332.84375 275.472656 334.28125 C 273.070312 335.722656 270.632812 337.105469 268.164062 338.425781 C 265.695312 339.746094 263.195312 341.007812 260.664062 342.207031 C 258.132812 343.40625 255.570312 344.539062 252.984375 345.613281 C 250.398438 346.6875 247.785156 347.695312 245.148438 348.640625 C 242.511719 349.585938 239.855469 350.46875 237.175781 351.28125 C 234.496094 352.097656 231.796875 352.84375 229.082031 353.527344 C 226.363281 354.210938 223.632812 354.828125 220.886719 355.375 C 218.140625 355.925781 215.378906 356.40625 212.609375 356.820312 C 209.839844 357.230469 207.0625 357.578125 204.273438 357.855469 C 201.488281 358.132812 198.695312 358.339844 195.898438 358.480469 C 193.101562 358.621094 190.300781 358.691406 187.5 358.695312 Z M 187.5 358.695312 " fill-opacity="1" fill-rule="nonzero"/></svg>