<svg width="125" height="129" viewBox="0 0 125 129" fill="none" xmlns="http://www.w3.org/2000/svg">
<path d="M116.628 54.5283L122.982 60.8828C125.673 63.5734 125.673 67.9242 122.982 70.5862L67.3661 126.231C64.6754 128.921 60.3246 128.921 57.6626 126.231L2.01798 70.5862C-0.672659 67.8956 -0.672659 63.5448 2.01798 60.8828L8.37245 54.5283C11.0917 51.809 15.5284 51.8663 18.1904 54.6428L51.0505 89.1344V6.86971C51.0505 3.06274 54.1132 0 57.9202 0H67.0798C70.8868 0 73.9495 3.06274 73.9495 6.86971V89.1344L106.81 54.6428C109.472 51.8377 113.908 51.7804 116.628 54.5283Z" fill="#D0D8DD"/>
</svg>
