<svg width="134" height="134" viewBox="0 0 134 134" fill="none" xmlns="http://www.w3.org/2000/svg">
<g filter="url(#filter0_b_194_207)">
<g filter="url(#filter1_b_194_207)">
<circle cx="67" cy="67" r="67" fill="white" fill-opacity="0.32"/>
<circle cx="67" cy="67" r="65.5" stroke="white" stroke-opacity="0.17" stroke-width="3"/>
</g>
<path d="M62.2448 27.0661V21.9461H67.2848C68.3195 21.9461 69.0822 22.0474 69.5728 22.2501C70.0635 22.4528 70.3088 22.8048 70.3088 23.3061C70.3088 23.6261 70.2022 23.8714 69.9888 24.0421C69.7808 24.2128 69.4795 24.3328 69.0848 24.4021C68.6955 24.4661 68.2262 24.5061 67.6768 24.5221L67.7408 24.4581C68.1408 24.4581 68.5115 24.4688 68.8528 24.4901C69.1942 24.5114 69.4928 24.5594 69.7488 24.6341C70.0048 24.7088 70.2048 24.8234 70.3488 24.9781C70.4928 25.1328 70.5648 25.3461 70.5648 25.6181C70.5648 25.9488 70.4475 26.2208 70.2128 26.4341C69.9782 26.6474 69.6448 26.8074 69.2128 26.9141C68.7808 27.0154 68.2715 27.0661 67.6848 27.0661L62.2448 27.0661ZM64.2448 25.5621L67.6848 25.5621C67.9675 25.5621 68.1702 25.5354 68.2928 25.4821C68.4208 25.4288 68.4848 25.3434 68.4848 25.2261C68.4848 25.1461 68.4555 25.0821 68.3968 25.0341C68.3435 24.9861 68.2582 24.9514 68.1408 24.9301C68.0235 24.9034 67.8715 24.8901 67.6848 24.8901L64.2448 24.8901V25.5621ZM64.2448 24.1221L67.3488 24.1221C67.6315 24.1221 67.8342 24.0954 67.9568 24.0421C68.0848 23.9888 68.1488 23.9034 68.1488 23.7861C68.1488 23.6634 68.0848 23.5781 67.9568 23.5301C67.8342 23.4768 67.6315 23.4501 67.3488 23.4501L64.2448 23.4501V24.1221Z" fill="#F4F4F4"/>
<path d="M76.42 24.796L76.2473 25.4123L82.1019 27.0527L81.6918 28.5163L73.9114 26.3363L75.2927 21.4062L83.0577 23.5819L82.6476 25.0455L76.8085 23.4094L76.6358 24.0257L81.4119 25.3639L81.1961 26.1342L76.42 24.796Z" fill="#F4F4F4"/>
<path d="M86.4125 29.9709L87.036 28.9456L91.7114 31.7888L91.0879 32.8141L86.4125 29.9709ZM84.4782 29.7029L90.0708 27.1115L91.9711 28.267L92.2705 34.4415L90.3908 33.2984L90.2366 27.8396L91.2551 28.459L86.3579 30.846L84.4782 29.7029Z" fill="#F4F4F4"/>
<path d="M100.158 38.3213L101.766 36.8197L103.131 38.2814L101.26 40.0287C100.929 40.3381 100.588 40.5397 100.238 40.6334C99.8951 40.7273 99.5457 40.7361 99.1899 40.6598C98.8379 40.5799 98.4881 40.4359 98.1405 40.2278C97.7929 40.0197 97.4506 39.7665 97.1137 39.4682C96.7764 39.1774 96.4513 38.8645 96.1382 38.5293C95.807 38.1746 95.5042 37.8152 95.2298 37.4511C94.9516 37.0907 94.7205 36.7299 94.5366 36.369C94.3564 36.0119 94.242 35.6589 94.1936 35.3101C94.149 34.9577 94.1853 34.6136 94.3024 34.278C94.4271 33.9427 94.655 33.6203 94.9864 33.3109L96.8573 31.5635L98.2224 33.0252L96.6146 34.5268C96.3027 34.818 96.136 35.1161 96.1142 35.421C96.0925 35.7259 96.1815 36.0478 96.3812 36.3867C96.5885 36.7258 96.8778 37.0942 97.2491 37.4918C97.6095 37.8777 97.9518 38.1856 98.276 38.4155C98.6041 38.6418 98.921 38.7545 99.2267 38.7536C99.536 38.7566 99.8466 38.6125 100.158 38.3213Z" fill="#F4F4F4"/>
<path d="M105.881 42.1346L109.709 49.5219L108.36 50.2212L104.532 42.8339L105.881 42.1346ZM106.078 45.5918L106.998 47.3676L103.709 49.0717L102.789 47.2959L106.078 45.5918Z" fill="#F4F4F4"/>
<path d="M111.671 56.1943L112.077 58.1525L107.065 59.1942L106.658 57.236L111.671 56.1943Z" fill="#F4F4F4"/>
<path d="M112.559 73.9499L111.042 73.8461L111.456 67.7963L110.778 67.7499L110.439 72.6983L109.082 72.6055L109.421 67.6571L107.864 67.5506L108.001 65.5553L113.109 65.9047L112.559 73.9499Z" fill="#F4F4F4"/>
<path d="M107.559 83.4921L109.632 84.2288L108.963 86.1133L106.55 85.2561C106.123 85.1042 105.788 84.8943 105.543 84.6264C105.302 84.3652 105.133 84.0591 105.037 83.708C104.947 83.3587 104.914 82.9819 104.938 82.5775C104.963 82.1732 105.031 81.7528 105.14 81.3164C105.243 80.8832 105.372 80.4505 105.525 80.0183C105.688 79.561 105.868 79.1268 106.065 78.7157C106.257 78.3029 106.471 77.9317 106.707 77.6024C106.941 77.2781 107.201 77.0142 107.489 76.8107C107.781 76.6089 108.103 76.4829 108.455 76.4325C108.81 76.3889 109.202 76.443 109.629 76.5948L112.041 77.4521L111.371 79.3366L109.298 78.5999C108.896 78.457 108.555 78.446 108.274 78.567C107.993 78.688 107.748 78.9151 107.539 79.2484C107.334 79.5884 107.14 80.0147 106.958 80.5273C106.781 81.0248 106.665 81.4704 106.61 81.8641C106.56 82.2595 106.606 82.5927 106.747 82.8637C106.887 83.1397 107.157 83.3492 107.559 83.4921Z" fill="#F4F4F4"/>
<path d="M105.415 92.3001L102.474 90.224L99.7843 94.0344L98.5425 93.1578L102.386 87.7135L106.568 90.6661L105.415 92.3001Z" fill="#F4F4F4"/>
<path d="M97.1517 101.802L94.8798 99.0091L91.2619 101.953L90.3027 100.773L95.472 96.5679L98.7032 100.539L97.1517 101.802Z" fill="#F4F4F4"/>
<path d="M81.2807 111.046L82.7322 106.255L82.2127 105.059L84.0471 104.262L84.5666 105.458L89.0587 107.667L86.8941 108.607L83.1573 106.611L84.5148 106.021L83.4454 110.105L81.2807 111.046Z" fill="#F4F4F4"/>
<path d="M64.3362 110.941L57.8373 110.048L58.0007 108.859L64.4996 109.753L64.3362 110.941Z" fill="#F4F4F4"/>
<path d="M42.7933 102.919L41.0991 101.541C41.1408 101.431 41.1166 101.287 41.0264 101.111C40.9329 100.938 40.7817 100.74 40.5728 100.515C40.3564 100.29 40.091 100.05 39.7766 99.7947C39.4663 99.5423 39.2155 99.3519 39.0241 99.2238C38.8252 99.0964 38.6701 99.0251 38.5586 99.01C38.4437 98.9991 38.3526 99.035 38.2853 99.1177C38.2214 99.1963 38.2325 99.3051 38.3189 99.4441C38.4018 99.5872 38.5896 99.7916 38.8823 100.057C39.175 100.323 39.5985 100.681 40.1529 101.132C40.5666 101.469 40.9093 101.779 41.181 102.061C41.4453 102.345 41.6409 102.607 41.7681 102.848C41.8877 103.09 41.9408 103.312 41.9275 103.514C41.9108 103.721 41.8284 103.915 41.6803 104.097C41.4245 104.412 41.1087 104.584 40.7328 104.615C40.3493 104.647 39.9021 104.538 39.3911 104.287C38.8725 104.037 38.2885 103.648 37.639 103.119C36.6874 102.345 36.0741 101.616 35.799 100.931C35.5164 100.248 35.5855 99.6474 36.0062 99.1303L37.6135 100.438C37.5231 100.591 37.5672 100.799 37.7458 101.061C37.9211 101.327 38.2259 101.637 38.6603 101.991C39.0905 102.341 39.4314 102.577 39.6827 102.699C39.93 102.817 40.1024 102.817 40.2 102.697C40.2505 102.635 40.2619 102.562 40.2343 102.477C40.2067 102.393 40.1326 102.281 40.0122 102.142C39.8842 102.003 39.6933 101.824 39.4394 101.604C39.1854 101.383 38.8578 101.11 38.4565 100.783C38.0139 100.423 37.6559 100.094 37.3826 99.7963C37.106 99.5025 36.9079 99.2347 36.7883 98.993C36.6645 98.7479 36.6147 98.5218 36.6389 98.3146C36.6597 98.1115 36.7442 97.919 36.8923 97.7369C37.1481 97.4225 37.4561 97.2468 37.8162 97.2098C38.1763 97.1727 38.6102 97.2817 39.1179 97.5365C39.6256 97.7914 40.2269 98.2016 40.922 98.7671C41.315 99.0868 41.6585 99.4041 41.9524 99.7189C42.2423 100.03 42.4801 100.334 42.6659 100.629C42.8483 100.929 42.9764 101.215 43.0499 101.488C43.1201 101.765 43.1371 102.023 43.101 102.262C43.0574 102.502 42.9548 102.721 42.7933 102.919Z" fill="#F4F4F4"/>
<path d="M29.7898 94.8043L28.6364 93.1704L32.8193 90.2178L33.9726 91.8517L29.7898 94.8043Z" fill="#F4F4F4"/>
<path d="M27.3037 80.6002L27.7055 81.7309L21.9913 79.1261L21.3215 77.2416L26.1459 75.527L26.8157 77.4115L23.5291 78.5796L23.5618 77.9312L27.673 79.8237L28.4767 82.0852L26.4922 86.1526L26.0549 85.6627L29.334 84.4973L30.0037 86.3819L25.1794 88.0965L24.5096 86.2119L27.3037 80.6002Z" fill="#F4F4F4"/>
<path d="M24.513 70.776L23.1163 70.8716L22.8438 66.8889C22.8329 66.7293 22.7999 66.5979 22.7447 66.4947C22.6839 66.3866 22.571 66.3382 22.406 66.3495C22.2357 66.3612 22.1305 66.4245 22.0902 66.5395C22.0496 66.6492 22.0348 66.7839 22.0457 66.9435L22.3094 70.7985L25.8212 70.5583L25.9577 72.5536L20.8496 72.903L20.4707 67.3639C20.4434 66.9649 20.4472 66.5904 20.4821 66.2406C20.5113 65.8857 20.5888 65.573 20.7146 65.3025C20.8404 65.0319 21.0286 64.8133 21.2792 64.6464C21.5297 64.4796 21.8598 64.3822 22.2695 64.3542C22.6792 64.3262 23.0089 64.3784 23.2585 64.511C23.5082 64.6437 23.7004 64.8363 23.8353 65.089C23.9702 65.3418 24.0683 65.6424 24.1296 65.9911C24.1905 66.3344 24.2346 66.7056 24.2619 67.1046L24.513 70.776Z" fill="#F4F4F4"/>
<path d="M21.1429 59.1955L24.6676 59.9279L25.6166 55.3615L27.1048 55.6707L25.7489 62.1954L20.736 61.1537L21.1429 59.1955Z" fill="#F4F4F4"/>
<path d="M27.3792 48.9085L27.9474 49.2029L30.7446 43.8046L32.0942 44.5039L28.3769 51.678L23.8309 49.3225L27.5409 42.1626L28.8904 42.8619L26.1006 48.246L26.6688 48.5404L28.9508 44.1365L29.6611 44.5046L27.3792 48.9085Z" fill="#F4F4F4"/>
<path d="M40.8307 31.3966L46.4357 27.9881L47.0592 29.0134L41.4542 32.4219L40.8307 31.3966Z" fill="#F4F4F4"/>
<path d="M66.6234 58.2802C61.4618 58.2802 57.2798 62.4622 57.2798 67.6239C57.2798 72.7855 61.4618 76.9675 66.6234 76.9675C71.785 76.9675 75.9671 72.7855 75.9671 67.6239C75.9671 62.4622 71.785 58.2802 66.6234 58.2802Z" fill="#F4F4F4"/>
</g>
<defs>
<filter id="filter0_b_194_207" x="-60" y="-60" width="254" height="254" filterUnits="userSpaceOnUse" color-interpolation-filters="sRGB">
<feFlood flood-opacity="0" result="BackgroundImageFix"/>
<feGaussianBlur in="BackgroundImageFix" stdDeviation="30"/>
<feComposite in2="SourceAlpha" operator="in" result="effect1_backgroundBlur_194_207"/>
<feBlend mode="normal" in="SourceGraphic" in2="effect1_backgroundBlur_194_207" result="shape"/>
</filter>
<filter id="filter1_b_194_207" x="-125" y="-125" width="384" height="384" filterUnits="userSpaceOnUse" color-interpolation-filters="sRGB">
<feFlood flood-opacity="0" result="BackgroundImageFix"/>
<feGaussianBlur in="BackgroundImageFix" stdDeviation="62.5"/>
<feComposite in2="SourceAlpha" operator="in" result="effect1_backgroundBlur_194_207"/>
<feBlend mode="normal" in="SourceGraphic" in2="effect1_backgroundBlur_194_207" result="shape"/>
</filter>
</defs>
</svg>
