<svg width="94" height="91" viewBox="0 0 94 91" fill="none" xmlns="http://www.w3.org/2000/svg">
<path d="M42.2448 6.0661V0.946105L47.2848 0.946105C48.3195 0.946105 49.0822 1.04744 49.5728 1.2501C50.0635 1.45277 50.3088 1.80477 50.3088 2.3061C50.3088 2.6261 50.2022 2.87144 49.9888 3.0421C49.7808 3.21277 49.4795 3.33277 49.0848 3.4021C48.6955 3.4661 48.2262 3.5061 47.6768 3.5221L47.7408 3.4581C48.1408 3.4581 48.5115 3.46877 48.8528 3.4901C49.1942 3.51144 49.4928 3.55944 49.7488 3.6341C50.0048 3.70877 50.2048 3.82344 50.3488 3.9781C50.4928 4.13277 50.5648 4.3461 50.5648 4.6181C50.5648 4.94877 50.4475 5.22077 50.2128 5.4341C49.9782 5.64744 49.6448 5.80744 49.2128 5.9141C48.7808 6.01544 48.2715 6.0661 47.6848 6.0661L42.2448 6.0661ZM44.2448 4.5621L47.6848 4.5621C47.9675 4.5621 48.1702 4.53544 48.2928 4.4821C48.4208 4.42877 48.4848 4.34344 48.4848 4.2261C48.4848 4.1461 48.4555 4.0821 48.3968 4.0341C48.3435 3.9861 48.2582 3.95144 48.1408 3.9301C48.0235 3.90344 47.8715 3.8901 47.6848 3.8901L44.2448 3.8901V4.5621ZM44.2448 3.1221L47.3488 3.1221C47.6315 3.1221 47.8342 3.09544 47.9568 3.0421C48.0848 2.98877 48.1488 2.90344 48.1488 2.7861C48.1488 2.66344 48.0848 2.5781 47.9568 2.5301C47.8342 2.47677 47.6315 2.4501 47.3488 2.4501L44.2448 2.4501V3.1221Z" fill="#D0D8DD"/>
<path d="M56.4201 3.79604L56.2474 4.41231L62.102 6.05267L61.6919 7.51631L53.9115 5.33635L55.2929 0.40621L63.0578 2.58185L62.6477 4.04549L56.8086 2.40944L56.6359 3.02571L61.412 4.3639L61.1962 5.13423L56.4201 3.79604Z" fill="#D0D8DD"/>
<path d="M66.4124 8.97093L67.0359 7.94563L71.7113 10.7888L71.0878 11.8141L66.4124 8.97093ZM64.4781 8.70287L70.0707 6.11145L71.9709 7.26701L72.2704 13.4415L70.3907 12.2984L70.2365 6.83961L71.255 7.45895L66.3578 9.84595L64.4781 8.70287Z" fill="#D0D8DD"/>
<path d="M80.1583 17.3213L81.7662 15.8197L83.1313 17.2814L81.2603 19.0287C80.929 19.3381 80.5882 19.5397 80.2378 19.6334C79.895 19.7273 79.5457 19.7361 79.1898 19.6598C78.8378 19.5799 78.488 19.4359 78.1404 19.2278C77.7928 19.0197 77.4506 18.7665 77.1136 18.4682C76.7764 18.1774 76.4512 17.8645 76.1382 17.5292C75.8069 17.1745 75.5041 16.8152 75.2298 16.4511C74.9515 16.0907 74.7204 15.7299 74.5366 15.369C74.3563 15.0119 74.242 14.6589 74.1935 14.3101C74.1489 13.9577 74.1852 13.6136 74.3023 13.278C74.427 12.9427 74.655 12.6203 74.9863 12.3109L76.8572 10.5635L78.2223 12.0252L76.6145 13.5268C76.3027 13.818 76.1359 14.1161 76.1142 14.421C76.0924 14.7259 76.1814 15.0478 76.3812 15.3867C76.5884 15.7258 76.8777 16.0942 77.249 16.4918C77.6094 16.8776 77.9517 17.1856 78.2759 17.4155C78.604 17.6418 78.9209 17.7545 79.2266 17.7536C79.5359 17.7566 79.8465 17.6125 80.1583 17.3213Z" fill="#D0D8DD"/>
<path d="M85.8814 21.1346L89.7092 28.5219L88.3596 29.2212L84.5319 21.8339L85.8814 21.1346ZM86.078 24.5918L86.9981 26.3676L83.7094 28.0717L82.7893 26.2959L86.078 24.5918Z" fill="#D0D8DD"/>
<path d="M91.6705 35.1944L92.0774 37.1525L87.0645 38.1942L86.6576 36.2361L91.6705 35.1944Z" fill="#D0D8DD"/>
<path d="M92.5586 52.9499L91.0422 52.8462L91.456 46.7963L90.7776 46.7499L90.4391 51.6983L89.0823 51.6055L89.4208 46.6571L87.8644 46.5506L88.0009 44.5553L93.109 44.9047L92.5586 52.9499Z" fill="#D0D8DD"/>
<path d="M87.5593 62.4921L89.6323 63.2288L88.9625 65.1133L86.5503 64.256C86.1232 64.1042 85.7874 63.8943 85.543 63.6264C85.3019 63.3652 85.1333 63.0591 85.0374 62.708C84.9464 62.3587 84.9134 61.9819 84.9382 61.5775C84.9631 61.1732 85.0304 60.7528 85.1402 60.3163C85.2432 59.8832 85.3715 59.4505 85.5251 59.0183C85.6877 58.561 85.8675 58.1268 86.0645 57.7157C86.2565 57.3028 86.4705 56.9317 86.7064 56.6024C86.9405 56.2781 87.2013 56.0141 87.4887 55.8106C87.7811 55.6089 88.1033 55.4829 88.4551 55.4325C88.8103 55.3889 89.2014 55.443 89.6285 55.5948L92.0407 56.4521L91.371 58.3366L89.298 57.5999C88.896 57.457 88.5546 57.446 88.2739 57.567C87.9931 57.688 87.7483 57.9151 87.5393 58.2483C87.3335 58.5884 87.1396 59.0147 86.9574 59.5273C86.7806 60.0248 86.6647 60.4704 86.6097 60.8641C86.5597 61.2595 86.6054 61.5927 86.7468 61.8637C86.8864 62.1397 87.1573 62.3492 87.5593 62.4921Z" fill="#D0D8DD"/>
<path d="M85.4149 71.3001L82.4739 69.224L79.7842 73.0344L78.5424 72.1578L82.3854 66.7135L86.5683 69.6661L85.4149 71.3001Z" fill="#D0D8DD"/>
<path d="M77.1517 80.8017L74.8798 78.0091L71.2619 80.9525L70.3027 79.7734L75.472 75.5679L78.7032 79.5395L77.1517 80.8017Z" fill="#D0D8DD"/>
<path d="M61.2806 90.0457L62.7321 85.2548L62.2126 84.0588L64.047 83.262L64.5665 84.458L69.0586 86.6673L66.894 87.6075L63.1572 85.611L64.5146 85.0213L63.4452 89.1055L61.2806 90.0457Z" fill="#D0D8DD"/>
<path d="M44.3362 89.9414L37.8373 89.0482L38.0007 87.8593L44.4996 88.7526L44.3362 89.9414Z" fill="#D0D8DD"/>
<path d="M22.7932 81.9193L21.099 80.541C21.1408 80.4306 21.1165 80.2871 21.0264 80.1106C20.9328 79.9383 20.7816 79.7396 20.5727 79.5147C20.3563 79.2905 20.0909 79.0505 19.7765 78.7947C19.4662 78.5423 19.2154 78.3519 19.024 78.2238C18.8252 78.0964 18.67 78.0251 18.5585 78.01C18.4436 77.9991 18.3526 78.035 18.2852 78.1177C18.2213 78.1963 18.2325 78.3051 18.3188 78.4441C18.4017 78.5872 18.5896 78.7916 18.8823 79.0572C19.1749 79.3228 19.5985 79.6812 20.1528 80.1322C20.5666 80.4688 20.9093 80.7785 21.181 81.0614C21.4452 81.3452 21.6409 81.6075 21.768 81.8484C21.8876 82.0901 21.9408 82.3121 21.9275 82.5144C21.9108 82.7209 21.8284 82.9151 21.6803 83.0971C21.4245 83.4115 21.1086 83.5843 20.7327 83.6154C20.3493 83.6472 19.902 83.5377 19.391 83.287C18.8725 83.037 18.2884 82.6478 17.6389 82.1194C16.6874 81.3452 16.0741 80.6159 15.799 79.9315C15.5164 79.2478 15.5854 78.6474 16.0062 78.1303L17.6134 79.4379C17.5231 79.5912 17.5672 79.799 17.7458 80.0612C17.921 80.3275 18.2258 80.6374 18.6602 80.9908C19.0905 81.3408 19.4313 81.5768 19.6827 81.6988C19.9299 81.8175 20.1024 81.8168 20.2 81.6968C20.2504 81.6348 20.2619 81.5616 20.2342 81.4772C20.2066 81.3929 20.1326 81.2811 20.0121 81.1418C19.8841 81.0033 19.6932 80.8239 19.4393 80.6036C19.1854 80.3833 18.8578 80.1099 18.4565 79.7834C18.0138 79.4232 17.6558 79.0942 17.3826 78.7963C17.1059 78.5025 16.9078 78.2347 16.7882 77.993C16.6644 77.7479 16.6146 77.5218 16.6388 77.3146C16.6597 77.1115 16.7441 76.919 16.8922 76.7369C17.148 76.4225 17.456 76.2468 17.8161 76.2098C18.1763 76.1727 18.6102 76.2817 19.1179 76.5365C19.6255 76.7914 20.2269 77.2016 20.9219 77.7671C21.315 78.0868 21.6584 78.4041 21.9524 78.7189C22.2422 79.0303 22.48 79.3337 22.6658 79.6293C22.8483 79.929 22.9763 80.2153 23.0498 80.4883C23.12 80.7654 23.1371 81.0234 23.101 81.2621C23.0573 81.5017 22.9548 81.7207 22.7932 81.9193Z" fill="#D0D8DD"/>
<path d="M9.78976 73.8043L8.6364 72.1704L12.8193 69.2178L13.9726 70.8517L9.78976 73.8043Z" fill="#D0D8DD"/>
<path d="M7.30368 59.6002L7.70554 60.731L1.9913 58.1261L1.32154 56.2416L6.14592 54.527L6.81568 56.4116L3.52907 57.5796L3.56183 56.9312L7.67297 58.8237L8.47668 61.0852L6.49219 65.1526L6.0549 64.6627L9.33397 63.4974L10.0037 65.3819L5.17936 67.0965L4.5096 65.2119L7.30368 59.6002Z" fill="#D0D8DD"/>
<path d="M4.513 49.776L3.11626 49.8716L2.84384 45.8889C2.83292 45.7293 2.79988 45.5979 2.74471 45.4947C2.68386 45.3866 2.57096 45.3382 2.40601 45.3495C2.23574 45.3612 2.13049 45.4245 2.09024 45.5395C2.04963 45.6492 2.03479 45.7839 2.04571 45.9435L2.30939 49.7985L5.82119 49.5583L5.95767 51.5536L0.849609 51.903L0.470727 46.3639C0.44343 45.9649 0.447218 45.5904 0.482091 45.2405C0.511279 44.8857 0.588788 44.573 0.714618 44.3025C0.840448 44.0319 1.02863 43.8133 1.27916 43.6464C1.5297 43.4796 1.85982 43.3822 2.26953 43.3542C2.67924 43.3261 3.00891 43.3784 3.25854 43.511C3.50817 43.6436 3.70043 43.8363 3.83533 44.089C3.97022 44.3417 4.0683 44.6424 4.12957 44.9911C4.19047 45.3344 4.23457 45.7056 4.26187 46.1046L4.513 49.776Z" fill="#D0D8DD"/>
<path d="M1.14295 38.1955L4.66765 38.928L5.61657 34.3615L7.10477 34.6708L5.74894 41.1954L0.736033 40.1537L1.14295 38.1955Z" fill="#D0D8DD"/>
<path d="M7.37922 27.9085L7.94746 28.203L10.7447 22.8046L12.0942 23.5039L8.37692 30.678L3.83095 28.3225L7.54091 21.1626L8.8905 21.8619L6.10066 27.246L6.66891 27.5405L8.95083 23.1365L9.66114 23.5046L7.37922 27.9085Z" fill="#D0D8DD"/>
<path d="M20.8306 10.3966L26.4356 6.98816L27.0591 8.01347L21.4541 11.4219L20.8306 10.3966Z" fill="#D0D8DD"/>
<path d="M46.6234 37.2802C41.4618 37.2802 37.2798 41.4622 37.2798 46.6238C37.2798 51.7855 41.4618 55.9675 46.6234 55.9675C51.785 55.9675 55.9671 51.7855 55.9671 46.6238C55.9671 41.4622 51.785 37.2802 46.6234 37.2802Z" fill="#D0D8DD"/>
</svg>
