<svg width="53" height="29" viewBox="0 0 53 29" fill="none" xmlns="http://www.w3.org/2000/svg">
<path d="M7.01456 24.8L7.17456 17.536L14.2466 10.656H21.4466L13.6066 18.752L10.5026 21.248L7.01456 24.8ZM1.95856 28V4.256H8.03856V28H1.95856ZM14.6946 28L9.38256 21.344L13.1586 16.672L22.0546 28H14.6946ZM33.9121 10.368C35.2561 10.368 36.4721 10.6453 37.5601 11.2C38.6481 11.7333 39.5014 12.5653 40.1201 13.696C40.7601 14.8267 41.0801 16.288 41.0801 18.08V28H35.0001V19.072C35.0001 17.8347 34.7441 16.9387 34.2321 16.384C33.7414 15.808 33.0481 15.52 32.1521 15.52C31.5121 15.52 30.9254 15.6693 30.3921 15.968C29.8587 16.2453 29.4427 16.6827 29.1441 17.28C28.8454 17.8773 28.6961 18.656 28.6961 19.616V28H22.6161V4.256H28.6961V15.584L27.2881 14.144C27.9494 12.8853 28.8561 11.9467 30.0081 11.328C31.1601 10.688 32.4614 10.368 33.9121 10.368Z" fill="#192024"/>
<path d="M47.3053 28.36C46.0253 28.36 44.9453 27.9333 44.0653 27.08C43.1853 26.2267 42.7453 25.1467 42.7453 23.84C42.7453 22.48 43.1853 21.4 44.0653 20.6C44.9453 19.7733 46.0253 19.36 47.3053 19.36C48.5853 19.36 49.6653 19.7733 50.5453 20.6C51.4253 21.4 51.8653 22.48 51.8653 23.84C51.8653 25.1467 51.4253 26.2267 50.5453 27.08C49.6653 27.9333 48.5853 28.36 47.3053 28.36Z" fill="#E15511"/>
</svg>
