<svg width="1728" height="201" viewBox="0 0 1728 201" fill="none" xmlns="http://www.w3.org/2000/svg">
<path fill-rule="evenodd" clip-rule="evenodd" d="M0.00469029 201H1729V6.82253C1728.82 6.81026 1728.63 6.79624 1728.44 6.78396C1715.76 5.92841 1702.52 5.92841 1686.33 6.62793C1670.15 7.3292 1651.02 8.72825 1633.97 10.8286C1616.92 12.9289 1601.95 15.7287 1588.44 19.6173C1574.92 23.5058 1562.86 28.4814 1551.02 32.8363C1539.16 37.1912 1527.52 40.9237 1516.5 43.8796C1505.48 46.8355 1495.08 49.0129 1482.82 50.4137C1470.55 51.8128 1456.41 52.4351 1442.49 52.5912C1428.55 52.7455 1414.83 52.4351 1401.11 51.5778C1387.38 50.724 1373.66 49.3232 1360.36 47.7682C1347.05 46.2131 1334.16 44.502 1313.79 39.991C1293.41 35.4818 1265.55 28.1711 1244.34 23.0377C1223.13 17.9062 1208.58 14.9521 1191.95 12.4625C1175.31 9.97301 1156.6 7.95159 1138.51 7.40634C1120.42 6.86286 1102.96 7.79555 1087.58 9.66269C1072.19 11.5298 1058.88 14.3279 1045.99 16.5843C1033.1 18.8389 1020.63 20.55 1007.32 21.7158C994.012 22.8817 979.876 23.5041 964.074 22.5714C948.272 21.6369 930.81 19.1509 907.94 15.7287C885.07 12.3065 856.791 7.95159 828.312 4.99572C799.827 2.0416 771.132 0.486525 742.441 0.0973181C713.75 -0.291889 685.059 0.486525 662.184 2.42905C639.314 4.37509 622.264 7.48348 606.674 10.2851C591.078 13.0832 576.942 15.5727 556.356 20.0836C535.774 24.5946 508.744 31.1269 487.121 36.5706C465.499 42.0142 449.284 46.3691 433.689 49.0129C418.093 51.6585 403.126 52.5912 384.206 53.2136C365.285 53.8359 342.415 54.1462 322.875 53.601C303.33 53.0575 287.111 51.6585 268.401 48.9358C249.686 46.2131 228.481 42.1702 206.028 39.7596C183.571 37.349 159.871 36.5706 134.505 38.1256C109.14 39.6807 82.1093 43.5693 34.0848 52.8243C23.6394 54.8352 12.209 57.1004 0 59.5653V201H0.00469029Z" fill="#111518"/>
</svg>
