<svg width="63" height="63" viewBox="0 0 63 63" fill="none" xmlns="http://www.w3.org/2000/svg">
<g clip-path="url(#clip0_95_343)">
<mask id="mask0_95_343" style="mask-type:luminance" maskUnits="userSpaceOnUse" x="9" y="46" width="54" height="9">
<path d="M63 54.3769L9.408 54.3769V46.368L63 46.368V54.3769Z" fill="white"/>
</mask>
<g mask="url(#mask0_95_343)">
<path d="M59.0645 46.4651L13.3868 46.4651C11.2133 46.4651 9.44934 48.2271 9.44934 50.4013C9.44934 52.5748 11.2133 54.3368 13.3868 54.3368L59.0645 54.3368C61.238 54.3368 63 52.5748 63 50.4013C63 48.2271 61.238 46.4651 59.0645 46.4651Z" fill="#F4F4F4"/>
</g>
<mask id="mask1_95_343" style="mask-type:luminance" maskUnits="userSpaceOnUse" x="0" y="8" width="63" height="9">
<path d="M63 16.5506L0 16.5506V8.67628L63 8.67628V16.5506Z" fill="white"/>
</mask>
<g mask="url(#mask1_95_343)">
<path d="M59.0645 8.67625L3.93553 8.67625C1.76269 8.67625 0 10.4389 0 12.6131C0 14.7873 1.76269 16.5493 3.93553 16.5493L59.0645 16.5493C61.238 16.5493 63 14.7873 63 12.6131C63 10.4389 61.238 8.67625 59.0645 8.67625Z" fill="#F4F4F4"/>
</g>
<path d="M59.0645 27.571L28.0875 27.571C25.9127 27.571 24.1487 29.3337 24.1487 31.5072C24.1487 33.6807 25.9127 35.4434 28.0875 35.4434L59.0645 35.4434C61.238 35.4434 63 33.6807 63 31.5072C63 29.3337 61.238 27.571 59.0645 27.571Z" fill="#F4F4F4"/>
</g>
<defs>
<clipPath id="clip0_95_343">
<rect width="63" height="63" fill="white" transform="translate(63 63) rotate(180)"/>
</clipPath>
</defs>
</svg>
