<svg width="75" height="36" viewBox="0 0 75 36" fill="none" xmlns="http://www.w3.org/2000/svg">
<path d="M4.416 15.144L4.488 11.376L11.184 5.184H14.784L9.096 10.896L7.512 12.216L4.416 15.144ZM1.968 18V0.191999H4.968V18H1.968ZM11.64 18L6.96 12.216L8.856 9.816L15.288 18H11.64ZM21.7742 18.168C20.3502 18.168 19.1022 17.888 18.0302 17.328C16.9742 16.752 16.1502 15.968 15.5582 14.976C14.9822 13.984 14.6942 12.856 14.6942 11.592C14.6942 10.312 14.9742 9.184 15.5342 8.208C16.1102 7.216 16.8942 6.44 17.8862 5.88C18.8942 5.32 20.0382 5.04 21.3182 5.04C22.5662 5.04 23.6782 5.312 24.6542 5.856C25.6302 6.4 26.3982 7.168 26.9582 8.16C27.5182 9.152 27.7982 10.32 27.7982 11.664C27.7982 11.792 27.7902 11.936 27.7742 12.096C27.7742 12.256 27.7662 12.408 27.7502 12.552H17.0702V10.56H26.1662L24.9902 11.184C25.0062 10.448 24.8542 9.8 24.5342 9.24C24.2142 8.68 23.7742 8.24 23.2142 7.92C22.6702 7.6 22.0382 7.44 21.3182 7.44C20.5822 7.44 19.9342 7.6 19.3742 7.92C18.8302 8.24 18.3982 8.688 18.0782 9.264C17.7742 9.824 17.6222 10.488 17.6222 11.256V11.736C17.6222 12.504 17.7982 13.184 18.1502 13.776C18.5022 14.368 18.9982 14.824 19.6382 15.144C20.2782 15.464 21.0142 15.624 21.8462 15.624C22.5662 15.624 23.2142 15.512 23.7902 15.288C24.3662 15.064 24.8782 14.712 25.3262 14.232L26.9342 16.08C26.3582 16.752 25.6302 17.272 24.7502 17.64C23.8862 17.992 22.8942 18.168 21.7742 18.168ZM32.8935 18L27.3975 5.184H30.5175L35.2455 16.488H33.7095L38.6055 5.184H41.4855L35.9895 18H32.8935ZM49.6725 5.04C50.6965 5.04 51.6085 5.24 52.4085 5.64C53.2245 6.04 53.8645 6.656 54.3285 7.488C54.7925 8.304 55.0245 9.36 55.0245 10.656V18H52.0245V11.04C52.0245 9.904 51.7525 9.056 51.2085 8.496C50.6805 7.936 49.9365 7.656 48.9765 7.656C48.2725 7.656 47.6485 7.8 47.1045 8.088C46.5605 8.376 46.1365 8.808 45.8325 9.384C45.5445 9.944 45.4005 10.656 45.4005 11.52V18H42.4005V5.184H45.2565V8.64L44.7525 7.584C45.2005 6.768 45.8485 6.144 46.6965 5.712C47.5605 5.264 48.5525 5.04 49.6725 5.04ZM9.24 22.04C10.264 22.04 11.176 22.24 11.976 22.64C12.792 23.04 13.432 23.656 13.896 24.488C14.36 25.304 14.592 26.36 14.592 27.656V35H11.592V28.04C11.592 26.904 11.32 26.056 10.776 25.496C10.248 24.936 9.504 24.656 8.544 24.656C7.84 24.656 7.216 24.8 6.672 25.088C6.128 25.376 5.704 25.808 5.4 26.384C5.112 26.944 4.968 27.656 4.968 28.52V35H1.968V17.192H4.968V25.64L4.32 24.584C4.768 23.768 5.416 23.144 6.264 22.712C7.128 22.264 8.12 22.04 9.24 22.04ZM23.2211 35.168C21.9091 35.168 20.7411 34.888 19.7171 34.328C18.6931 33.752 17.8851 32.968 17.2931 31.976C16.7011 30.984 16.4051 29.856 16.4051 28.592C16.4051 27.312 16.7011 26.184 17.2931 25.208C17.8851 24.216 18.6931 23.44 19.7171 22.88C20.7411 22.32 21.9091 22.04 23.2211 22.04C24.5491 22.04 25.7251 22.32 26.7491 22.88C27.7891 23.44 28.5971 24.208 29.1731 25.184C29.7651 26.16 30.0611 27.296 30.0611 28.592C30.0611 29.856 29.7651 30.984 29.1731 31.976C28.5971 32.968 27.7891 33.752 26.7491 34.328C25.7251 34.888 24.5491 35.168 23.2211 35.168ZM23.2211 32.6C23.9571 32.6 24.6131 32.44 25.1891 32.12C25.7651 31.8 26.2131 31.336 26.5331 30.728C26.8691 30.12 27.0371 29.408 27.0371 28.592C27.0371 27.76 26.8691 27.048 26.5331 26.456C26.2131 25.848 25.7651 25.384 25.1891 25.064C24.6131 24.744 23.9651 24.584 23.2451 24.584C22.5091 24.584 21.8531 24.744 21.2771 25.064C20.7171 25.384 20.2691 25.848 19.9331 26.456C19.5971 27.048 19.4291 27.76 19.4291 28.592C19.4291 29.408 19.5971 30.12 19.9331 30.728C20.2691 31.336 20.7171 31.8 21.2771 32.12C21.8531 32.44 22.5011 32.6 23.2211 32.6ZM31.9699 35V22.184H34.8259V25.712L34.4899 24.68C34.8739 23.816 35.4739 23.16 36.2899 22.712C37.1219 22.264 38.1539 22.04 39.3859 22.04V24.896C39.2579 24.864 39.1379 24.848 39.0259 24.848C38.9139 24.832 38.8019 24.824 38.6899 24.824C37.5539 24.824 36.6499 25.16 35.9779 25.832C35.3059 26.488 34.9699 27.472 34.9699 28.784V35H31.9699ZM46.2636 35.168C44.8556 35.168 43.7676 34.808 42.9996 34.088C42.2316 33.352 41.8476 32.272 41.8476 30.848V19.352H44.8476V30.776C44.8476 31.384 44.9996 31.856 45.3036 32.192C45.6236 32.528 46.0636 32.696 46.6236 32.696C47.2956 32.696 47.8556 32.52 48.3036 32.168L49.1436 34.304C48.7916 34.592 48.3596 34.808 47.8476 34.952C47.3356 35.096 46.8076 35.168 46.2636 35.168ZM39.7356 24.68V22.28H48.2796V24.68H39.7356ZM57.9234 22.04C58.9474 22.04 59.8594 22.24 60.6594 22.64C61.4754 23.04 62.1154 23.656 62.5794 24.488C63.0434 25.304 63.2754 26.36 63.2754 27.656V35H60.2754V28.04C60.2754 26.904 60.0034 26.056 59.4594 25.496C58.9314 24.936 58.1874 24.656 57.2274 24.656C56.5234 24.656 55.8994 24.8 55.3554 25.088C54.8114 25.376 54.3874 25.808 54.0834 26.384C53.7954 26.944 53.6514 27.656 53.6514 28.52V35H50.6514V22.184H53.5074V25.64L53.0034 24.584C53.4514 23.768 54.0994 23.144 54.9474 22.712C55.8114 22.264 56.8034 22.04 57.9234 22.04Z" fill="#F4F4F4"/>
<path d="M67.0811 35.168C66.5371 35.168 66.0731 34.984 65.6891 34.616C65.3051 34.232 65.1131 33.752 65.1131 33.176C65.1131 32.568 65.3051 32.088 65.6891 31.736C66.0731 31.368 66.5371 31.184 67.0811 31.184C67.6251 31.184 68.0891 31.368 68.4731 31.736C68.8571 32.088 69.0491 32.568 69.0491 33.176C69.0491 33.752 68.8571 34.232 68.4731 34.616C68.0891 34.984 67.6251 35.168 67.0811 35.168Z" fill="#FFA478"/>
</svg>
