<svg xmlns="http://www.w3.org/2000/svg" xmlns:xlink="http://www.w3.org/1999/xlink" width="1000" zoomAndPan="magnify" viewBox="0 0 750 553.499988" height="738" preserveAspectRatio="xMidYMid meet" version="1.0"><defs><g/><clipPath id="0f6ae9500e"><path d="M 463 220 L 618 220 L 618 523 L 463 523 Z M 463 220 " clip-rule="nonzero"/></clipPath><clipPath id="d8467253e3"><path d="M 532.757812 188.03125 L 673.308594 482.960938 L 571.84375 531.3125 L 431.292969 236.386719 Z M 532.757812 188.03125 " clip-rule="nonzero"/></clipPath><clipPath id="d534dd0f59"><path d="M 431.0625 236.496094 L 571.609375 531.425781 L 673.078125 483.070312 L 532.527344 188.144531 Z M 431.0625 236.496094 " clip-rule="nonzero"/></clipPath><clipPath id="13c1d2bc54"><path d="M 563 455 L 623 455 L 623 527 L 563 527 Z M 563 455 " clip-rule="nonzero"/></clipPath><clipPath id="eb081205fa"><path d="M 532.757812 188.03125 L 673.308594 482.960938 L 571.84375 531.3125 L 431.292969 236.386719 Z M 532.757812 188.03125 " clip-rule="nonzero"/></clipPath><clipPath id="1aa836a100"><path d="M 431.0625 236.496094 L 571.609375 531.425781 L 673.078125 483.070312 L 532.527344 188.144531 Z M 431.0625 236.496094 " clip-rule="nonzero"/></clipPath></defs><g fill="#f5f5f5" fill-opacity="1"><g transform="translate(211.053776, 282.216421)"><g><path d="M 5.234375 -102.203125 C 6.035156 -101.910156 7.039062 -100.796875 8.25 -98.859375 C 9.457031 -96.929688 10.695312 -94.644531 11.96875 -92 C 13.238281 -89.351562 14.535156 -86.515625 15.859375 -83.484375 C 17.191406 -80.460938 18.390625 -77.632812 19.453125 -75 C 20.523438 -72.375 21.394531 -70.191406 22.0625 -68.453125 C 22.738281 -66.722656 23.097656 -65.8125 23.140625 -65.71875 C 24.023438 -72.457031 25.082031 -78.660156 26.3125 -84.328125 C 27.550781 -90.003906 28.800781 -95.007812 30.0625 -99.34375 C 31.320312 -103.675781 32.535156 -107.238281 33.703125 -110.03125 C 34.867188 -112.820312 35.804688 -114.707031 36.515625 -115.6875 C 37.941406 -117.4375 39.992188 -118.832031 42.671875 -119.875 C 46.054688 -121.1875 48.820312 -121.457031 50.96875 -120.6875 C 53.113281 -119.925781 54.78125 -118.28125 55.96875 -115.75 C 57.363281 -112.90625 58.265625 -109.085938 58.671875 -104.296875 C 59.085938 -99.515625 59.328125 -94.019531 59.390625 -87.8125 C 59.460938 -81.601562 59.457031 -74.867188 59.375 -67.609375 C 59.300781 -60.347656 59.398438 -52.769531 59.671875 -44.875 L 60.328125 -27.765625 C 55.398438 -26.554688 52.003906 -26.238281 50.140625 -26.8125 C 48.273438 -27.382812 47.007812 -28.535156 46.34375 -30.265625 C 45.84375 -31.566406 45.453125 -33.910156 45.171875 -37.296875 C 44.898438 -40.691406 44.726562 -44.546875 44.65625 -48.859375 C 44.582031 -53.171875 44.550781 -57.671875 44.5625 -62.359375 C 44.582031 -67.054688 44.648438 -71.375 44.765625 -75.3125 C 44.890625 -79.257812 45.007812 -82.503906 45.125 -85.046875 C 45.238281 -87.585938 45.335938 -88.878906 45.421875 -88.921875 C 45.253906 -88.847656 44.890625 -87.851562 44.328125 -85.9375 C 43.773438 -84.019531 43.082031 -81.554688 42.25 -78.546875 C 41.425781 -75.535156 40.585938 -72.164062 39.734375 -68.4375 C 38.890625 -64.707031 38.09375 -60.976562 37.34375 -57.25 C 36.59375 -53.519531 35.96875 -49.984375 35.46875 -46.640625 C 34.976562 -43.296875 34.710938 -40.519531 34.671875 -38.3125 C 34.578125 -36.476562 34.453125 -35.328125 34.296875 -34.859375 C 34.140625 -34.398438 33.488281 -33.953125 32.34375 -33.515625 C 29.832031 -32.535156 27.554688 -32.546875 25.515625 -33.546875 C 23.484375 -34.554688 21.625 -36.128906 19.9375 -38.265625 C 18.257812 -40.410156 16.785156 -42.859375 15.515625 -45.609375 C 14.253906 -48.367188 13.125 -51.023438 12.125 -53.578125 C 11.132812 -56.140625 10.253906 -58.34375 9.484375 -60.1875 C 8.710938 -62.039062 8.070312 -63.117188 7.5625 -63.421875 C 7.4375 -63.472656 7.378906 -62.398438 7.390625 -60.203125 C 7.398438 -58.003906 7.453125 -55.351562 7.546875 -52.25 C 7.648438 -49.15625 7.765625 -45.90625 7.890625 -42.5 C 8.023438 -39.101562 8.1875 -36.253906 8.375 -33.953125 C 8.6875 -29.273438 9.085938 -25.335938 9.578125 -22.140625 C 10.078125 -18.941406 10.523438 -16.320312 10.921875 -14.28125 C 11.316406 -12.238281 11.617188 -10.6875 11.828125 -9.625 C 12.046875 -8.5625 12.035156 -7.753906 11.796875 -7.203125 C 11.566406 -6.660156 11.078125 -6.316406 10.328125 -6.171875 C 9.578125 -6.035156 8.484375 -5.894531 7.046875 -5.75 C 4.359375 -5.488281 2.050781 -6.285156 0.125 -8.140625 C -1.789062 -9.992188 -3.363281 -12.625 -4.59375 -16.03125 C -6.050781 -20.0625 -7.128906 -24.910156 -7.828125 -30.578125 C -8.523438 -36.242188 -8.925781 -42.171875 -9.03125 -48.359375 C -9.144531 -54.554688 -9.03125 -60.738281 -8.6875 -66.90625 C -8.351562 -73.082031 -7.882812 -78.679688 -7.28125 -83.703125 C -6.6875 -88.722656 -6.054688 -92.882812 -5.390625 -96.1875 C -4.722656 -99.488281 -4.09375 -101.40625 -3.5 -101.9375 C -2.039062 -103.3125 -0.648438 -103.90625 0.671875 -103.71875 C 2.003906 -103.53125 3.609375 -103.054688 5.484375 -102.296875 Z M 5.234375 -102.203125 "/></g></g></g><g fill="#f5f5f5" fill-opacity="1"><g transform="translate(285.859145, 253.166235)"><g><path d="M 32.046875 -106.015625 C 33.859375 -106.722656 35.535156 -106.953125 37.078125 -106.703125 C 38.617188 -106.460938 40.054688 -105.898438 41.390625 -105.015625 C 42.734375 -104.140625 43.910156 -102.972656 44.921875 -101.515625 C 45.941406 -100.054688 46.789062 -98.457031 47.46875 -96.71875 C 48.207031 -94.8125 48.875 -91.878906 49.46875 -87.921875 C 50.0625 -83.960938 50.472656 -79.429688 50.703125 -74.328125 C 50.941406 -69.234375 50.925781 -63.8125 50.65625 -58.0625 C 50.382812 -52.320312 49.71875 -46.773438 48.65625 -41.421875 C 47.59375 -36.078125 46.085938 -31.148438 44.140625 -26.640625 C 42.203125 -22.140625 39.710938 -18.550781 36.671875 -15.875 C 35.160156 -14.601562 33.53125 -13.578125 31.78125 -12.796875 C 30.039062 -12.023438 28.097656 -11.566406 25.953125 -11.421875 C 23.222656 -11.265625 20.859375 -11.820312 18.859375 -13.09375 C 16.867188 -14.363281 15.335938 -15.8125 14.265625 -17.4375 C 13.191406 -19.0625 12.601562 -20.578125 12.5 -21.984375 C 12.394531 -23.398438 12.875 -24.160156 13.9375 -24.265625 C 17.164062 -24.421875 19.941406 -26.070312 22.265625 -29.21875 C 24.585938 -32.375 26.507812 -36.21875 28.03125 -40.75 C 29.5625 -45.289062 30.757812 -50.175781 31.625 -55.40625 C 32.488281 -60.632812 33.109375 -65.460938 33.484375 -69.890625 C 33.859375 -74.328125 34.015625 -77.976562 33.953125 -80.84375 C 33.890625 -83.71875 33.726562 -85.109375 33.46875 -85.015625 C 33.289062 -84.941406 32.921875 -84.019531 32.359375 -82.25 C 31.796875 -80.476562 30.882812 -77.507812 29.625 -73.34375 C 27.539062 -66.332031 25.675781 -60.441406 24.03125 -55.671875 C 22.394531 -50.898438 20.78125 -46.957031 19.1875 -43.84375 C 17.601562 -40.726562 15.960938 -38.34375 14.265625 -36.6875 C 12.578125 -35.03125 10.734375 -33.816406 8.734375 -33.046875 C 5.867188 -31.929688 3.316406 -31.6875 1.078125 -32.3125 C -1.160156 -32.9375 -3.03125 -34.15625 -4.53125 -35.96875 C -6.03125 -37.78125 -7.257812 -40.046875 -8.21875 -42.765625 C -9.1875 -45.484375 -9.8125 -48.390625 -10.09375 -51.484375 C -10.625 -56.171875 -10.828125 -60.15625 -10.703125 -63.4375 C -10.585938 -66.726562 -10.25 -69.453125 -9.6875 -71.609375 C -9.132812 -73.773438 -8.394531 -75.460938 -7.46875 -76.671875 C -6.539062 -77.878906 -5.570312 -78.726562 -4.5625 -79.21875 C -3.550781 -79.71875 -2.554688 -79.929688 -1.578125 -79.859375 C -0.609375 -79.785156 0.304688 -79.59375 1.171875 -79.28125 C 2.046875 -78.976562 2.769531 -78.585938 3.34375 -78.109375 C 3.925781 -77.628906 4.285156 -77.21875 4.421875 -76.875 C 4.691406 -76.175781 4.84375 -74.757812 4.875 -72.625 C 4.914062 -70.5 4.941406 -68.316406 4.953125 -66.078125 C 4.972656 -63.835938 5.023438 -61.835938 5.109375 -60.078125 C 5.203125 -58.316406 5.46875 -57.519531 5.90625 -57.6875 C 6.070312 -57.757812 6.75 -59.148438 7.9375 -61.859375 C 9.132812 -64.566406 10.539062 -67.828125 12.15625 -71.640625 C 14.695312 -77.921875 16.914062 -83.125 18.8125 -87.25 C 20.71875 -91.375 22.390625 -94.71875 23.828125 -97.28125 C 25.273438 -99.851562 26.625 -101.78125 27.875 -103.0625 C 29.125 -104.34375 30.398438 -105.234375 31.703125 -105.734375 Z M 32.046875 -106.015625 "/></g></g></g><g fill="#f5f5f5" fill-opacity="1"><g transform="translate(349.736418, 228.359906)"><g/></g></g><g fill="#f5f5f5" fill-opacity="1"><g transform="translate(383.431359, 215.274691)"><g><path d="M 11.640625 -74.125 C 13.265625 -76.363281 15.390625 -78.335938 18.015625 -80.046875 C 20.640625 -81.765625 23.363281 -82.722656 26.1875 -82.921875 C 29.007812 -83.128906 31.773438 -82.3125 34.484375 -80.46875 C 37.191406 -78.625 39.507812 -75.226562 41.4375 -70.28125 C 42.375 -67.851562 43.140625 -65.03125 43.734375 -61.8125 C 44.335938 -58.601562 44.738281 -55.265625 44.9375 -51.796875 C 45.132812 -48.335938 45.066406 -44.847656 44.734375 -41.328125 C 44.410156 -37.804688 43.757812 -34.535156 42.78125 -31.515625 C 41.800781 -28.492188 40.484375 -25.835938 38.828125 -23.546875 C 37.179688 -21.253906 35.144531 -19.632812 32.71875 -18.6875 C 29.59375 -17.476562 26.785156 -16.988281 24.296875 -17.21875 C 21.816406 -17.457031 19.679688 -17.953125 17.890625 -18.703125 C 16.097656 -19.460938 14.695312 -20.289062 13.6875 -21.1875 C 12.6875 -22.09375 12.117188 -22.625 11.984375 -22.78125 C 12.828125 -18.519531 13.546875 -15.300781 14.140625 -13.125 C 14.734375 -10.957031 15.097656 -9.375 15.234375 -8.375 C 15.367188 -7.382812 15.285156 -6.753906 14.984375 -6.484375 C 14.691406 -6.222656 14.113281 -5.925781 13.25 -5.59375 C 12.382812 -5.257812 11.15625 -5.082031 9.5625 -5.0625 C 7.96875 -5.039062 6.351562 -5.210938 4.71875 -5.578125 C 3.082031 -5.941406 1.570312 -6.550781 0.1875 -7.40625 C -1.195312 -8.269531 -2.191406 -9.476562 -2.796875 -11.03125 C -3.296875 -12.332031 -3.765625 -14.644531 -4.203125 -17.96875 C -4.648438 -21.289062 -5.003906 -25.21875 -5.265625 -29.75 C -5.535156 -34.289062 -5.765625 -39.242188 -5.953125 -44.609375 C -6.140625 -49.984375 -6.191406 -55.40625 -6.109375 -60.875 C -6.035156 -66.351562 -5.851562 -71.664062 -5.5625 -76.8125 C -5.28125 -81.96875 -4.875 -86.566406 -4.34375 -90.609375 C -3.820312 -94.648438 -3.15625 -98.003906 -2.34375 -100.671875 C -1.53125 -103.335938 -0.5625 -104.890625 0.5625 -105.328125 C 1.863281 -105.828125 3.257812 -105.890625 4.75 -105.515625 C 6.238281 -105.148438 7.59375 -104.679688 8.8125 -104.109375 C 10.039062 -103.535156 11.023438 -102.941406 11.765625 -102.328125 C 12.503906 -101.710938 12.789062 -101.476562 12.625 -101.625 C 11.957031 -97.957031 11.398438 -94.316406 10.953125 -90.703125 C 10.503906 -87.097656 10.132812 -83.863281 9.84375 -81 C 9.5625 -78.144531 9.390625 -75.832031 9.328125 -74.0625 C 9.265625 -72.300781 9.320312 -71.453125 9.5 -71.515625 C 9.675781 -71.585938 9.988281 -71.882812 10.4375 -72.40625 C 10.882812 -72.925781 11.375 -73.535156 11.90625 -74.234375 Z M 23.859375 -38.015625 C 24.796875 -38.972656 25.597656 -40.453125 26.265625 -42.453125 C 26.929688 -44.460938 27.484375 -46.703125 27.921875 -49.171875 C 28.359375 -51.640625 28.625 -54.164062 28.71875 -56.75 C 28.8125 -59.332031 28.722656 -61.617188 28.453125 -63.609375 C 28.179688 -65.597656 27.703125 -67.15625 27.015625 -68.28125 C 26.328125 -69.414062 25.375 -69.75 24.15625 -69.28125 C 23.03125 -68.84375 21.96875 -67.78125 20.96875 -66.09375 C 19.976562 -64.40625 19.070312 -62.425781 18.25 -60.15625 C 17.4375 -57.894531 16.707031 -55.46875 16.0625 -52.875 C 15.425781 -50.28125 14.90625 -47.832031 14.5 -45.53125 C 14.101562 -43.226562 13.820312 -41.25 13.65625 -39.59375 C 13.5 -37.9375 13.488281 -36.929688 13.625 -36.578125 C 13.726562 -36.316406 14.113281 -36.039062 14.78125 -35.75 C 15.445312 -35.46875 16.289062 -35.296875 17.3125 -35.234375 C 18.332031 -35.179688 19.390625 -35.34375 20.484375 -35.71875 C 21.585938 -36.101562 22.671875 -36.851562 23.734375 -37.96875 Z M 23.859375 -38.015625 "/></g></g></g><g fill="#f5f5f5" fill-opacity="1"><g transform="translate(439.502854, 193.499685)"><g><path d="M -4.5625 -100.78125 C -3.082031 -101.351562 -1.648438 -101.582031 -0.265625 -101.46875 C 1.117188 -101.363281 2.394531 -101.039062 3.5625 -100.5 C 4.726562 -99.957031 5.710938 -99.289062 6.515625 -98.5 C 7.316406 -97.707031 7.882812 -96.878906 8.21875 -96.015625 C 8.394531 -95.578125 8.519531 -94.878906 8.59375 -93.921875 C 8.664062 -92.960938 8.722656 -91.390625 8.765625 -89.203125 C 8.816406 -87.023438 8.832031 -84.035156 8.8125 -80.234375 C 8.789062 -76.429688 8.722656 -71.460938 8.609375 -65.328125 C 8.597656 -61.523438 8.609375 -57.78125 8.640625 -54.09375 C 8.671875 -50.414062 8.78125 -46.914062 8.96875 -43.59375 C 9.15625 -40.28125 9.335938 -37.238281 9.515625 -34.46875 C 9.703125 -31.695312 9.953125 -29.367188 10.265625 -27.484375 C 11.015625 -23.285156 11.921875 -19.875 12.984375 -17.25 C 14.054688 -14.625 14.894531 -12.53125 15.5 -10.96875 C 16.101562 -9.40625 16.253906 -8.238281 15.953125 -7.46875 C 15.648438 -6.707031 14.5 -6.085938 12.5 -5.609375 C 8.351562 -4.691406 4.925781 -5.15625 2.21875 -7 C -0.488281 -8.84375 -2.691406 -11.675781 -4.390625 -15.5 C -6.203125 -19.695312 -7.523438 -24.726562 -8.359375 -30.59375 C -9.191406 -36.457031 -9.691406 -42.625 -9.859375 -49.09375 C -10.023438 -55.570312 -9.957031 -62.085938 -9.65625 -68.640625 C -9.363281 -75.191406 -9.066406 -81.171875 -8.765625 -86.578125 C -8.640625 -89.617188 -8.488281 -92 -8.3125 -93.71875 C -8.132812 -95.4375 -7.90625 -96.769531 -7.625 -97.71875 C -7.351562 -98.675781 -6.96875 -99.347656 -6.46875 -99.734375 C -5.96875 -100.128906 -5.289062 -100.492188 -4.4375 -100.828125 Z M -4.5625 -100.78125 "/></g></g></g><g fill="#f5f5f5" fill-opacity="1"><g transform="translate(464.221143, 183.900496)"><g><path d="M 8.546875 -89.40625 C 11.691406 -90.320312 14.601562 -90.601562 17.28125 -90.25 C 19.96875 -89.894531 22.414062 -89.046875 24.625 -87.703125 C 26.832031 -86.367188 28.785156 -84.609375 30.484375 -82.421875 C 32.191406 -80.242188 33.671875 -77.800781 34.921875 -75.09375 C 36.367188 -71.863281 37.476562 -68.300781 38.25 -64.40625 C 39.019531 -60.507812 39.472656 -56.515625 39.609375 -52.421875 C 39.742188 -48.335938 39.578125 -44.257812 39.109375 -40.1875 C 38.648438 -36.113281 37.84375 -32.285156 36.6875 -28.703125 C 35.539062 -25.117188 34.09375 -21.835938 32.34375 -18.859375 C 30.601562 -15.878906 28.585938 -13.492188 26.296875 -11.703125 C 24.671875 -10.484375 22.9375 -9.539062 21.09375 -8.875 C 19.257812 -8.207031 17.285156 -7.914062 15.171875 -8 C 13.953125 -8.019531 12.242188 -8.351562 10.046875 -9 C 7.847656 -9.644531 5.492188 -10.828125 2.984375 -12.546875 C 0.472656 -14.265625 -2.007812 -16.6875 -4.46875 -19.8125 C -6.9375 -22.945312 -9.03125 -26.976562 -10.75 -31.90625 C -13.3125 -39.289062 -14.507812 -46.234375 -14.34375 -52.734375 C -14.175781 -59.242188 -13.070312 -65.015625 -11.03125 -70.046875 C -9 -75.078125 -6.269531 -79.285156 -2.84375 -82.671875 C 0.582031 -86.054688 4.320312 -88.328125 8.375 -89.484375 Z M 18.609375 -29.546875 C 19.460938 -30.960938 20.203125 -32.914062 20.828125 -35.40625 C 21.453125 -37.90625 21.925781 -40.664062 22.25 -43.6875 C 22.582031 -46.707031 22.738281 -49.832031 22.71875 -53.0625 C 22.707031 -56.300781 22.503906 -59.34375 22.109375 -62.1875 C 21.710938 -65.03125 21.070312 -67.523438 20.1875 -69.671875 C 19.300781 -71.828125 18.164062 -73.382812 16.78125 -74.34375 C 14.3125 -76.070312 12.007812 -75.945312 9.875 -73.96875 C 7.75 -72 6.050781 -69.046875 4.78125 -65.109375 C 3.519531 -61.179688 2.828125 -56.742188 2.703125 -51.796875 C 2.578125 -46.859375 3.21875 -42.316406 4.625 -38.171875 C 6 -34.128906 7.429688 -31.273438 8.921875 -29.609375 C 10.421875 -27.941406 11.8125 -27.003906 13.09375 -26.796875 C 14.382812 -26.597656 15.539062 -26.847656 16.5625 -27.546875 C 17.582031 -28.242188 18.265625 -28.910156 18.609375 -29.546875 Z M 18.609375 -29.546875 "/></g></g></g><g fill="#f5f5f5" fill-opacity="1"><g transform="translate(515.73926, 163.893766)"><g><path d="M 36.25 -101.359375 C 36.894531 -100.710938 37.472656 -99.789062 37.984375 -98.59375 C 38.503906 -97.394531 38.976562 -95.976562 39.40625 -94.34375 C 40.414062 -90.75 41.21875 -86.25 41.8125 -80.84375 C 42.414062 -75.445312 42.882812 -69.613281 43.21875 -63.34375 C 43.550781 -57.082031 43.738281 -50.691406 43.78125 -44.171875 C 43.820312 -37.648438 43.816406 -31.429688 43.765625 -25.515625 C 43.710938 -19.609375 43.613281 -14.257812 43.46875 -9.46875 C 43.332031 -4.6875 43.191406 -0.960938 43.046875 1.703125 C 43.015625 1.910156 42.960938 2.378906 42.890625 3.109375 C 42.828125 3.835938 42.695312 4.710938 42.5 5.734375 C 42.300781 6.753906 41.960938 7.878906 41.484375 9.109375 C 41.015625 10.347656 40.394531 11.515625 39.625 12.609375 C 38.695312 14.066406 37.460938 15.316406 35.921875 16.359375 C 34.378906 17.410156 32.425781 18.09375 30.0625 18.40625 C 27.3125 18.78125 24.957031 18.695312 23 18.15625 C 21.039062 17.625 19.441406 16.90625 18.203125 16 C 16.691406 14.976562 15.523438 13.78125 14.703125 12.40625 C 17.617188 11.96875 20.109375 10.800781 22.171875 8.90625 C 23.953125 7.320312 25.519531 4.941406 26.875 1.765625 C 28.238281 -1.410156 28.707031 -5.863281 28.28125 -11.59375 C 28.144531 -13.226562 27.976562 -14.679688 27.78125 -15.953125 C 27.59375 -17.234375 27.289062 -18.140625 26.875 -18.671875 C 26.46875 -19.210938 25.972656 -19.269531 25.390625 -18.84375 C 24.804688 -18.414062 24.039062 -17.375 23.09375 -15.71875 C 21.445312 -12.78125 19.84375 -10.484375 18.28125 -8.828125 C 16.726562 -7.171875 15.039062 -5.988281 13.21875 -5.28125 C 10.175781 -4.09375 7.515625 -4.253906 5.234375 -5.765625 C 2.953125 -7.285156 1.007812 -9.726562 -0.59375 -13.09375 C -2.226562 -16.539062 -3.488281 -20.757812 -4.375 -25.75 C -5.269531 -30.75 -5.769531 -36.023438 -5.875 -41.578125 C -5.988281 -47.128906 -5.707031 -52.703125 -5.03125 -58.296875 C -4.363281 -63.898438 -3.273438 -69.0625 -1.765625 -73.78125 C -0.265625 -78.507812 1.644531 -82.570312 3.96875 -85.96875 C 6.300781 -89.375 9.082031 -91.65625 12.3125 -92.8125 C 14.332031 -93.5 16.53125 -93.679688 18.90625 -93.359375 C 21.28125 -93.035156 23.832031 -92.054688 26.5625 -90.421875 C 26.738281 -91.785156 26.84375 -92.742188 26.875 -93.296875 C 26.90625 -93.859375 26.953125 -94.375 27.015625 -94.84375 C 27.085938 -95.320312 27.132812 -95.84375 27.15625 -96.40625 C 27.1875 -96.96875 27.269531 -97.976562 27.40625 -99.4375 C 28.9375 -100.125 30.125 -100.660156 30.96875 -101.046875 C 31.820312 -101.429688 32.523438 -101.679688 33.078125 -101.796875 C 33.640625 -101.910156 34.144531 -101.898438 34.59375 -101.765625 C 35.039062 -101.628906 35.628906 -101.40625 36.359375 -101.09375 Z M 16.09375 -27.953125 C 16.25 -28.316406 16.488281 -29.554688 16.8125 -31.671875 C 17.132812 -33.796875 17.550781 -36.453125 18.0625 -39.640625 C 18.570312 -42.835938 19.085938 -46.332031 19.609375 -50.125 C 20.128906 -53.925781 20.644531 -57.671875 21.15625 -61.359375 C 21.664062 -65.054688 22.160156 -68.46875 22.640625 -71.59375 C 23.128906 -74.726562 23.546875 -77.257812 23.890625 -79.1875 C 22.972656 -79.238281 22.289062 -79.253906 21.84375 -79.234375 C 21.40625 -79.210938 20.925781 -79.101562 20.40625 -78.90625 C 18.84375 -78.289062 17.4375 -76.765625 16.1875 -74.328125 C 14.945312 -71.890625 13.863281 -68.972656 12.9375 -65.578125 C 12.007812 -62.179688 11.242188 -58.492188 10.640625 -54.515625 C 10.035156 -50.546875 9.640625 -46.675781 9.453125 -42.90625 C 9.265625 -39.144531 9.25 -35.71875 9.40625 -32.625 C 9.5625 -29.539062 9.90625 -27.179688 10.4375 -25.546875 C 10.976562 -23.910156 11.710938 -23.171875 12.640625 -23.328125 C 13.578125 -23.492188 14.726562 -25.035156 16.09375 -27.953125 Z M 16.09375 -27.953125 "/></g></g></g><g clip-path="url(#0f6ae9500e)"><g clip-path="url(#d8467253e3)"><g clip-path="url(#d534dd0f59)"><path fill="#f5f5f5" d="M 571.363281 520.777344 L 571.15625 520.34375 C 570.636719 518.472656 570.910156 516.496094 571.980469 514.421875 C 584.738281 491.246094 593.613281 473.097656 598.601562 459.980469 C 601.789062 452.148438 604.523438 441.195312 606.800781 427.121094 C 610.804688 404.101562 607.351562 377.246094 596.433594 346.5625 C 588.914062 325.820312 574.578125 305.515625 553.425781 285.648438 C 541.257812 274.289062 527.890625 264.15625 513.324219 255.246094 C 506.207031 250.421875 491.074219 243.039062 467.925781 233.097656 C 466.691406 232.160156 465.925781 231.21875 465.636719 230.269531 C 465.175781 229.476562 465.089844 226.898438 465.375 222.53125 C 465.1875 221.773438 464.632812 221.242188 463.714844 220.933594 C 487.117188 227.144531 514.0625 242.039062 544.550781 265.617188 C 568.984375 285.160156 587.25 306.707031 599.347656 330.265625 C 606.359375 343.742188 611.578125 359.996094 615 379.035156 C 618.113281 400.214844 618.246094 418.316406 615.402344 433.34375 C 612.773438 452.117188 605.6875 473.308594 594.140625 496.917969 C 583.296875 517.929688 575.707031 525.882812 571.363281 520.777344 " fill-opacity="1" fill-rule="nonzero"/></g></g></g><g clip-path="url(#13c1d2bc54)"><g clip-path="url(#eb081205fa)"><g clip-path="url(#1aa836a100)"><path fill="#f5f5f5" d="M 568.007812 523.261719 L 567.875 523.027344 C 567.292969 522.152344 566.949219 520.636719 566.851562 518.484375 C 566.894531 498.675781 566.75 486.414062 566.425781 481.703125 C 566.148438 478.773438 565.296875 473.351562 563.859375 465.433594 C 563.667969 464.09375 563.574219 463.214844 563.574219 462.808594 C 563.546875 461.535156 563.808594 460.8125 564.367188 460.648438 C 564.921875 460.21875 565.65625 459.804688 566.570312 459.414062 L 574.558594 456.414062 C 575.105469 456.140625 575.351562 455.886719 575.304688 455.648438 C 576.035156 456.628906 576.835938 458.347656 577.707031 460.808594 C 579.5 466.03125 580.6875 472.15625 581.277344 479.183594 C 581.5625 481.707031 581.238281 490.675781 580.304688 506.089844 L 601.5625 483.21875 C 604.824219 479.875 608.308594 476.546875 612.015625 473.238281 C 612.425781 472.878906 612.914062 472.683594 613.480469 472.648438 C 613.71875 472.484375 614.65625 472.707031 616.296875 473.320312 C 618.273438 474.152344 620.207031 475.84375 622.09375 478.402344 C 622.644531 479.421875 622.761719 480.136719 622.453125 480.535156 C 618.839844 485.894531 615.527344 490.199219 612.515625 493.460938 C 607.019531 499.691406 596.707031 509.738281 581.582031 523.597656 C 579.3125 525.71875 576.898438 526.800781 574.332031 526.839844 C 570.828125 526.140625 568.71875 524.949219 568.007812 523.261719 " fill-opacity="1" fill-rule="nonzero"/></g></g></g></svg>