<svg width="81" height="39" viewBox="0 0 81 39" fill="none" xmlns="http://www.w3.org/2000/svg">
<path d="M73.05 38.45C71.45 38.45 70.1 37.9167 69 36.85C67.9 35.7833 67.35 34.4333 67.35 32.8C67.35 31.1 67.9 29.75 69 28.75C70.1 27.7167 71.45 27.2 73.05 27.2C74.65 27.2 76 27.7167 77.1 28.75C78.2 29.75 78.75 31.1 78.75 32.8C78.75 34.4333 78.2 35.7833 77.1 36.85C76 37.9167 74.65 38.45 73.05 38.45Z" fill="#E15511"/>
<path d="M5.256 18.6L5.376 13.152L10.68 7.992H16.08L10.2 14.064L7.872 15.936L5.256 18.6ZM1.464 21V3.192H6.024V21H1.464ZM11.016 21L7.032 16.008L9.864 12.504L16.536 21H11.016ZM23.2106 21.216C21.6746 21.216 20.3306 20.928 19.1786 20.352C18.0426 19.76 17.1546 18.96 16.5146 17.952C15.8906 16.928 15.5786 15.768 15.5786 14.472C15.5786 13.176 15.8826 12.024 16.4906 11.016C17.1146 9.992 17.9706 9.2 19.0586 8.64C20.1466 8.064 21.3706 7.776 22.7306 7.776C24.0106 7.776 25.1786 8.04 26.2346 8.568C27.2906 9.08 28.1306 9.84 28.7546 10.848C29.3786 11.856 29.6906 13.08 29.6906 14.52C29.6906 14.68 29.6826 14.864 29.6666 15.072C29.6506 15.28 29.6346 15.472 29.6186 15.648H19.3226V13.248H27.1946L25.4666 13.92C25.4826 13.328 25.3706 12.816 25.1306 12.384C24.9066 11.952 24.5866 11.616 24.1706 11.376C23.7706 11.136 23.2986 11.016 22.7546 11.016C22.2106 11.016 21.7306 11.136 21.3146 11.376C20.9146 11.616 20.6026 11.96 20.3786 12.408C20.1546 12.84 20.0426 13.352 20.0426 13.944V14.64C20.0426 15.28 20.1706 15.832 20.4266 16.296C20.6986 16.76 21.0826 17.12 21.5786 17.376C22.0746 17.616 22.6666 17.736 23.3546 17.736C23.9946 17.736 24.5386 17.648 24.9866 17.472C25.4506 17.28 25.9066 16.992 26.3546 16.608L28.7546 19.104C28.1306 19.792 27.3626 20.32 26.4506 20.688C25.5386 21.04 24.4586 21.216 23.2106 21.216ZM34.2227 21L28.8707 7.992H33.5507L37.8227 18.864H35.4707L39.9587 7.992H44.3027L38.9267 21H34.2227ZM52.9935 7.776C54.0015 7.776 54.9135 7.984 55.7295 8.4C56.5455 8.8 57.1855 9.424 57.6495 10.272C58.1295 11.12 58.3695 12.216 58.3695 13.56V21H53.8095V14.304C53.8095 13.376 53.6175 12.704 53.2335 12.288C52.8655 11.856 52.3455 11.64 51.6735 11.64C51.1935 11.64 50.7535 11.752 50.3535 11.976C49.9535 12.184 49.6415 12.512 49.4175 12.96C49.1935 13.408 49.0815 13.992 49.0815 14.712V21H44.5215V7.992H48.8655V11.688L48.0255 10.608C48.5215 9.664 49.2015 8.96 50.0655 8.496C50.9295 8.016 51.9055 7.776 52.9935 7.776ZM9.936 24.776C10.944 24.776 11.856 24.984 12.672 25.4C13.488 25.8 14.128 26.424 14.592 27.272C15.072 28.12 15.312 29.216 15.312 30.56V38H10.752V31.304C10.752 30.376 10.56 29.704 10.176 29.288C9.808 28.856 9.288 28.64 8.616 28.64C8.136 28.64 7.696 28.752 7.296 28.976C6.896 29.184 6.584 29.512 6.36 29.96C6.136 30.408 6.024 30.992 6.024 31.712V38H1.464V20.192H6.024V28.688L4.968 27.608C5.464 26.664 6.144 25.96 7.008 25.496C7.872 25.016 8.848 24.776 9.936 24.776ZM23.907 38.216C22.483 38.216 21.219 37.928 20.115 37.352C19.011 36.776 18.139 35.984 17.499 34.976C16.875 33.952 16.563 32.784 16.563 31.472C16.563 30.16 16.875 29 17.499 27.992C18.139 26.984 19.011 26.2 20.115 25.64C21.219 25.064 22.483 24.776 23.907 24.776C25.331 24.776 26.595 25.064 27.699 25.64C28.819 26.2 29.691 26.984 30.315 27.992C30.939 29 31.251 30.16 31.251 31.472C31.251 32.784 30.939 33.952 30.315 34.976C29.691 35.984 28.819 36.776 27.699 37.352C26.595 37.928 25.331 38.216 23.907 38.216ZM23.907 34.592C24.435 34.592 24.899 34.472 25.299 34.232C25.715 33.992 26.043 33.64 26.283 33.176C26.523 32.696 26.643 32.128 26.643 31.472C26.643 30.816 26.523 30.264 26.283 29.816C26.043 29.352 25.715 29 25.299 28.76C24.899 28.52 24.435 28.4 23.907 28.4C23.395 28.4 22.931 28.52 22.515 28.76C22.115 29 21.787 29.352 21.531 29.816C21.291 30.264 21.171 30.816 21.171 31.472C21.171 32.128 21.291 32.696 21.531 33.176C21.787 33.64 22.115 33.992 22.515 34.232C22.931 34.472 23.395 34.592 23.907 34.592ZM32.4034 38V24.992H36.7474V28.784L36.0994 27.704C36.4834 26.728 37.1074 26 37.9714 25.52C38.8354 25.024 39.8834 24.776 41.1154 24.776V28.88C40.9074 28.848 40.7234 28.832 40.5634 28.832C40.4194 28.816 40.2594 28.808 40.0834 28.808C39.1554 28.808 38.4034 29.064 37.8274 29.576C37.2514 30.072 36.9634 30.888 36.9634 32.024V38H32.4034ZM48.2436 38.216C46.5796 38.216 45.2836 37.808 44.3556 36.992C43.4276 36.16 42.9636 34.912 42.9636 33.248V22.088H47.5236V33.2C47.5236 33.664 47.6516 34.032 47.9076 34.304C48.1636 34.56 48.4916 34.688 48.8916 34.688C49.4356 34.688 49.8996 34.552 50.2836 34.28L51.4116 37.472C51.0276 37.728 50.5556 37.912 49.9956 38.024C49.4356 38.152 48.8516 38.216 48.2436 38.216ZM41.0676 28.88V25.472H50.4996V28.88H41.0676ZM60.6819 24.776C61.6899 24.776 62.6019 24.984 63.4179 25.4C64.2339 25.8 64.8739 26.424 65.3379 27.272C65.8179 28.12 66.0579 29.216 66.0579 30.56V38H61.4979V31.304C61.4979 30.376 61.3059 29.704 60.9219 29.288C60.5539 28.856 60.0339 28.64 59.3619 28.64C58.8819 28.64 58.4419 28.752 58.0419 28.976C57.6419 29.184 57.3299 29.512 57.1059 29.96C56.8819 30.408 56.7699 30.992 56.7699 31.712V38H52.2099V24.992H56.5539V28.688L55.7139 27.608C56.2099 26.664 56.8899 25.96 57.7539 25.496C58.6179 25.016 59.5939 24.776 60.6819 24.776Z" fill="#F4F4F4"/>
</svg>
