<svg width="35" height="29" viewBox="0 0 35 29" fill="none" xmlns="http://www.w3.org/2000/svg">
<path d="M34.4782 3.63981C33.2077 4.19683 31.8475 4.58006 30.4139 4.75386C31.8766 3.87622 32.995 2.48798 33.5283 0.834185C32.1562 1.63302 30.6384 2.21163 29.0246 2.53872C27.7378 1.16127 25.8983 0.294434 23.857 0.294434C19.9438 0.294434 16.7722 3.46493 16.7722 7.37273C16.7722 7.93515 16.8402 8.4749 16.9579 8.98659C11.0714 8.71131 5.85306 5.88302 2.36303 1.61035C1.74987 2.65099 1.40119 3.86003 1.40119 5.17594C1.40119 7.63829 2.6545 9.79729 4.54902 11.0668C3.39072 11.0333 2.30042 10.7127 1.34506 10.1848V10.2701C1.34506 13.704 3.78474 16.5669 7.02324 17.2189C6.43275 17.3754 5.80233 17.4661 5.16218 17.4661C4.70771 17.4661 4.27375 17.4218 3.84087 17.3419C4.75197 20.153 7.36005 22.1997 10.469 22.2612C8.05201 24.1558 4.98838 25.2849 1.68726 25.2849C1.12484 25.2849 0.5635 25.2579 0 25.1899C3.14891 27.1978 6.86563 28.3723 10.8803 28.3723C23.9067 28.3723 31.0249 17.5827 31.0249 8.23849C31.0249 7.94055 31.0249 7.63721 31.0022 7.33279C32.3915 6.34288 33.5941 5.0885 34.5441 3.6668L34.4782 3.63981Z" fill="#E54B4B"/>
</svg>
